Roboto Serif Text-Black Italic.ufo
<glyph name="dollar" format="1">
  <advance width="560"/>
  <unicode hex="0024"/>
  <outline>
    <contour>
      <point x="319" y="790" type="line"/>
      <point x="302" y="697" type="line"/>
      <point x="151" y="689"/>
      <point x="71" y="613"/>
      <point x="71" y="493" type="curve" smooth="yes"/>
      <point x="71" y="377"/>
      <point x="142" y="331"/>
      <point x="240" y="288" type="curve" smooth="yes"/>
      <point x="243" y="287" type="line"/>
      <point x="209" y="100" type="line"/>
      <point x="172" y="105"/>
      <point x="145" y="117"/>
      <point x="125" y="133" type="curve"/>
      <point x="143" y="221" type="line"/>
      <point x="10" y="221" type="line"/>
      <point x="-13" y="112" type="line"/>
      <point x="20" y="75"/>
      <point x="84" y="32"/>
      <point x="183" y="18" type="curve"/>
      <point x="159" y="-120" type="line"/>
      <point x="256" y="-120" type="line"/>
      <point x="279" y="12" type="line"/>
      <point x="435" y="19"/>
      <point x="527" y="103"/>
      <point x="527" y="243" type="curve" smooth="yes"/>
      <point x="527" y="360"/>
      <point x="449" y="401"/>
      <point x="344" y="445" type="curve"/>
      <point x="374" y="612" type="line"/>
      <point x="400" y="609"/>
      <point x="421" y="602"/>
      <point x="439" y="590" type="curve"/>
      <point x="425" y="516" type="line"/>
      <point x="548" y="516" type="line"/>
      <point x="566" y="624" type="line"/>
      <point x="544" y="648"/>
      <point x="489" y="682"/>
      <point x="400" y="694" type="curve"/>
      <point x="416" y="790" type="line"/>
    </contour>
    <contour>
      <point x="202" y="542" type="curve" smooth="yes"/>
      <point x="202" y="583"/>
      <point x="230" y="609"/>
      <point x="301" y="614" type="curve"/>
      <point x="276" y="472" type="line"/>
      <point x="231" y="491"/>
      <point x="202" y="507"/>
    </contour>
    <contour>
      <point x="388" y="177" type="curve" smooth="yes"/>
      <point x="388" y="128"/>
      <point x="345" y="101"/>
      <point x="282" y="97" type="curve"/>
      <point x="311" y="258" type="line"/>
      <point x="360" y="236"/>
      <point x="388" y="217"/>
    </contour>
  </outline>
</glyph>
<glyph name="parenleft" format="1">
  <advance width="375"/>
  <unicode hex="0028"/>
  <outline>
    <contour>
      <point x="228" y="230" type="curve" smooth="yes"/>
      <point x="228" y="457"/>
      <point x="348" y="644"/>
      <point x="472" y="747" type="curve"/>
      <point x="473" y="750" type="line"/>
      <point x="350" y="750" type="line"/>
      <point x="207" y="669"/>
      <point x="55" y="494"/>
      <point x="55" y="251" type="curve" smooth="yes"/>
      <point x="55" y="88"/>
      <point x="123" y="-50"/>
      <point x="203" y="-130" type="curve"/>
      <point x="325" y="-130" type="line"/>
      <point x="326" y="-127" type="line"/>
      <point x="279" y="-55"/>
      <point x="228" y="75"/>
    </contour>
  </outline>
</glyph>
<glyph name="comma" format="1">
  <advance width="318"/>
  <unicode hex="002C"/>
  <outline>
    <contour>
      <point x="81" y="-195" type="line"/>
      <point x="218" y="-111"/>
      <point x="278" y="-13"/>
      <point x="278" y="79" type="curve" smooth="yes"/>
      <point x="278" y="141"/>
      <point x="236" y="190"/>
      <point x="162" y="190" type="curve" smooth="yes"/>
      <point x="92" y="190"/>
      <point x="47" y="144"/>
      <point x="47" y="84" type="curve" smooth="yes"/>
      <point x="47" y="30"/>
      <point x="90" y="-9"/>
      <point x="148" y="-14" type="curve"/>
      <point x="117" y="-51"/>
      <point x="56" y="-87"/>
      <point x="-24" y="-121" type="curve"/>
    </contour>
  </outline>
</glyph>
<glyph name="two" format="1">
  <advance width="560"/>
  <unicode hex="0032"/>
  <outline>
    <contour>
      <point x="-25" y="0" type="line"/>
      <point x="473" y="0" type="line"/>
      <point x="514" y="231" type="line"/>
      <point x="430" y="231" type="line"/>
      <point x="412" y="178" type="line" smooth="yes"/>
      <point x="400" y="142"/>
      <point x="372" y="138"/>
      <point x="294" y="138" type="curve" smooth="yes"/>
      <point x="129" y="138" type="line"/>
      <point x="350" y="218"/>
      <point x="531" y="294"/>
      <point x="531" y="452" type="curve" smooth="yes"/>
      <point x="531" y="559"/>
      <point x="446" y="618"/>
      <point x="295" y="618" type="curve" smooth="yes"/>
      <point x="197" y="618"/>
      <point x="117" y="583"/>
      <point x="73" y="553" type="curve"/>
      <point x="49" y="415" type="line"/>
      <point x="200" y="415" type="line"/>
      <point x="219" y="521" type="line"/>
      <point x="234" y="528"/>
      <point x="252" y="532"/>
      <point x="271" y="532" type="curve" smooth="yes"/>
      <point x="315" y="532"/>
      <point x="336" y="507"/>
      <point x="336" y="462" type="curve" smooth="yes"/>
      <point x="336" y="344"/>
      <point x="229" y="261"/>
      <point x="2" y="152" type="curve"/>
    </contour>
  </outline>
</glyph>
<glyph name="five" format="1">
  <advance width="560"/>
  <unicode hex="0035"/>
  <outline>
    <contour>
      <point x="237" y="-90" type="curve" smooth="yes"/>
      <point x="411" y="-90"/>
      <point x="522" y="13"/>
      <point x="522" y="165" type="curve" smooth="yes"/>
      <point x="522" y="281"/>
      <point x="445" y="366"/>
      <point x="316" y="366" type="curve" smooth="yes"/>
      <point x="254" y="366"/>
      <point x="210" y="347"/>
      <point x="178" y="315" type="curve"/>
      <point x="205" y="470" type="line"/>
      <point x="500" y="470" type="line"/>
      <point x="538" y="609" type="line"/>
      <point x="136" y="609" type="line"/>
      <point x="66" y="211" type="line"/>
      <point x="150" y="211" type="line"/>
      <point x="171" y="255"/>
      <point x="200" y="281"/>
      <point x="247" y="281" type="curve" smooth="yes"/>
      <point x="307" y="281"/>
      <point x="331" y="236"/>
      <point x="331" y="176" type="curve" smooth="yes"/>
      <point x="331" y="101"/>
      <point x="295" y="1"/>
      <point x="211" y="1" type="curve" smooth="yes"/>
      <point x="126" y="1"/>
      <point x="94" y="74"/>
      <point x="78" y="128" type="curve"/>
      <point x="-14" y="84" type="line"/>
      <point x="13" y="-13"/>
      <point x="83" y="-90"/>
    </contour>
  </outline>
</glyph>
<glyph name="seven" format="1">
  <advance width="560"/>
  <unicode hex="0037"/>
  <outline>
    <contour>
      <point x="253" y="470" type="curve" smooth="yes"/>
      <point x="463" y="470" type="line"/>
      <point x="348" y="375"/>
      <point x="149" y="184"/>
      <point x="93" y="-77" type="curve"/>
      <point x="282" y="-77" type="line"/>
      <point x="337" y="238"/>
      <point x="426" y="344"/>
      <point x="563" y="482" type="curve"/>
      <point x="585" y="609" type="line"/>
      <point x="98" y="609" type="line"/>
      <point x="53" y="350" type="line"/>
      <point x="126" y="350" type="line"/>
      <point x="149" y="427" type="line" smooth="yes"/>
      <point x="159" y="463"/>
      <point x="186" y="470"/>
    </contour>
  </outline>
</glyph>
<glyph name="equal" format="1">
  <advance width="560"/>
  <unicode hex="003D"/>
  <outline>
    <contour>
      <point x="535" y="503" type="line"/>
      <point x="94" y="503" type="line"/>
      <point x="73" y="382" type="line"/>
      <point x="514" y="382" type="line"/>
    </contour>
    <contour>
      <point x="499" y="293" type="line"/>
      <point x="58" y="293" type="line"/>
      <point x="37" y="172" type="line"/>
      <point x="478" y="172" type="line"/>
    </contour>
  </outline>
</glyph>
<glyph name="question" format="1">
  <advance width="580"/>
  <unicode hex="003F"/>
  <outline>
    <contour>
      <point x="213" y="389" type="curve"/>
      <point x="189" y="250" type="line"/>
      <point x="301" y="250" type="line"/>
      <point x="315" y="336" type="line"/>
      <point x="482" y="359"/>
      <point x="581" y="419"/>
      <point x="581" y="548" type="curve" smooth="yes"/>
      <point x="581" y="660"/>
      <point x="483" y="720"/>
      <point x="324" y="720" type="curve" smooth="yes"/>
      <point x="205" y="720"/>
      <point x="123" y="675"/>
      <point x="88" y="650" type="curve"/>
      <point x="65" y="525" type="line"/>
      <point x="224" y="525" type="line"/>
      <point x="241" y="618" type="line"/>
      <point x="258" y="626"/>
      <point x="277" y="630"/>
      <point x="301" y="630" type="curve" smooth="yes"/>
      <point x="358" y="630"/>
      <point x="384" y="601"/>
      <point x="385" y="550" type="curve" smooth="yes"/>
      <point x="387" y="464"/>
      <point x="328" y="418"/>
    </contour>
    <contour>
      <point x="345" y="89" type="curve" smooth="yes"/>
      <point x="345" y="150"/>
      <point x="303" y="192"/>
      <point x="232" y="192" type="curve" smooth="yes"/>
      <point x="161" y="192"/>
      <point x="119" y="150"/>
      <point x="119" y="89" type="curve" smooth="yes"/>
      <point x="119" y="28"/>
      <point x="161" y="-14"/>
      <point x="232" y="-14" type="curve" smooth="yes"/>
      <point x="303" y="-14"/>
      <point x="345" y="28"/>
    </contour>
  </outline>
</glyph>
<glyph name="J" format="1">
  <advance width="616"/>
  <unicode hex="004A"/>
  <outline>
    <contour>
      <point x="210" y="-10" type="curve" smooth="yes"/>
      <point x="373" y="-10"/>
      <point x="479" y="61"/>
      <point x="508" y="227" type="curve" smooth="yes"/>
      <point x="573" y="601" type="line" smooth="yes"/>
      <point x="578" y="630"/>
      <point x="602" y="637"/>
      <point x="633" y="637" type="curve" smooth="yes"/>
      <point x="643" y="637" type="line"/>
      <point x="656" y="710" type="line"/>
      <point x="296" y="710" type="line"/>
      <point x="283" y="637" type="line"/>
      <point x="302" y="637" type="line" smooth="yes"/>
      <point x="337" y="637"/>
      <point x="360" y="630"/>
      <point x="355" y="601" type="curve" smooth="yes"/>
      <point x="291" y="235" type="line" smooth="yes"/>
      <point x="271" y="117"/>
      <point x="240" y="80"/>
      <point x="188" y="80" type="curve" smooth="yes"/>
      <point x="165" y="80"/>
      <point x="148" y="86"/>
      <point x="135" y="97" type="curve"/>
      <point x="157" y="222" type="line"/>
      <point x="3" y="222" type="line"/>
      <point x="-25" y="65" type="line"/>
      <point x="11" y="30"/>
      <point x="92" y="-10"/>
    </contour>
    <contour>
      <point x="374" y="741" type="move" name="top"/>
    </contour>
  </outline>
</glyph>
<glyph name="L" format="1">
  <advance width="640"/>
  <unicode hex="004C"/>
  <outline>
    <contour>
      <point x="-30" y="0" type="line"/>
      <point x="553" y="0" type="line"/>
      <point x="595" y="243" type="line"/>
      <point x="497" y="243" type="line"/>
      <point x="466" y="127" type="line" smooth="yes"/>
      <point x="457" y="91"/>
      <point x="423" y="84"/>
      <point x="346" y="84" type="curve" smooth="yes"/>
      <point x="268" y="84" type="line"/>
      <point x="359" y="602" type="line" smooth="yes"/>
      <point x="364" y="630"/>
      <point x="389" y="637"/>
      <point x="422" y="637" type="curve" smooth="yes"/>
      <point x="436" y="637" type="line"/>
      <point x="450" y="710" type="line"/>
      <point x="97" y="710" type="line"/>
      <point x="83" y="637" type="line"/>
      <point x="93" y="637" type="line" smooth="yes"/>
      <point x="124" y="637"/>
      <point x="146" y="630"/>
      <point x="141" y="601" type="curve" smooth="yes"/>
      <point x="54" y="108" type="line" smooth="yes"/>
      <point x="49" y="80"/>
      <point x="25" y="73"/>
      <point x="-6" y="73" type="curve" smooth="yes"/>
      <point x="-16" y="73" type="line"/>
    </contour>
    <contour>
      <point x="382" y="741" type="move" name="top"/>
    </contour>
    <contour>
      <point x="475" y="710" type="move" name="right"/>
    </contour>
    <contour>
      <point x="476" y="410" type="move" name="mid"/>
    </contour>
    <contour>
      <point x="382" y="0" type="move" name="bottom"/>
    </contour>
  </outline>
</glyph>
<glyph name="M" format="1">
  <advance width="968"/>
  <unicode hex="004D"/>
  <outline>
    <contour>
      <point x="-30" y="0" type="line"/>
      <point x="186" y="0" type="line"/>
      <point x="198" y="73" type="line"/>
      <point x="191" y="73" type="line" smooth="yes"/>
      <point x="167" y="73"/>
      <point x="138" y="76"/>
      <point x="139" y="83" type="curve" smooth="yes"/>
      <point x="236" y="635" type="line"/>
      <point x="304" y="-2" type="line"/>
      <point x="415" y="-2" type="line"/>
      <point x="713" y="634" type="line"/>
      <point x="616" y="83" type="line" smooth="yes"/>
      <point x="615" y="76"/>
      <point x="585" y="73"/>
      <point x="559" y="73" type="curve" smooth="yes"/>
      <point x="550" y="73" type="line"/>
      <point x="538" y="0" type="line"/>
      <point x="883" y="0" type="line"/>
      <point x="896" y="73" type="line"/>
      <point x="886" y="73" type="line" smooth="yes"/>
      <point x="856" y="73"/>
      <point x="833" y="80"/>
      <point x="838" y="108" type="curve" smooth="yes"/>
      <point x="925" y="601" type="line" smooth="yes"/>
      <point x="930" y="630"/>
      <point x="954" y="637"/>
      <point x="985" y="637" type="curve" smooth="yes"/>
      <point x="995" y="637" type="line"/>
      <point x="1008" y="710" type="line"/>
      <point x="658" y="710" type="line"/>
      <point x="474" y="308" type="line"/>
      <point x="444" y="710" type="line"/>
      <point x="96" y="710" type="line"/>
      <point x="82" y="637" type="line"/>
      <point x="92" y="637" type="line" smooth="yes"/>
      <point x="123" y="637"/>
      <point x="145" y="630"/>
      <point x="140" y="601" type="curve" smooth="yes"/>
      <point x="53" y="109" type="line" smooth="yes"/>
      <point x="48" y="80"/>
      <point x="24" y="73"/>
      <point x="-7" y="73" type="curve"/>
      <point x="-17" y="73" type="line"/>
    </contour>
    <contour>
      <point x="465" y="0" type="move" name="bottom"/>
    </contour>
  </outline>
</glyph>
<glyph name="N" format="1">
  <advance width="756"/>
  <unicode hex="004E"/>
  <outline>
    <contour>
      <point x="-30" y="0" type="line"/>
      <point x="199" y="0" type="line"/>
      <point x="212" y="73" type="line"/>
      <point x="200" y="73" type="line" smooth="yes"/>
      <point x="169" y="73"/>
      <point x="140" y="80"/>
      <point x="141" y="87" type="curve" smooth="yes"/>
      <point x="232" y="606" type="line"/>
      <point x="407" y="0" type="line"/>
      <point x="609" y="0" type="line"/>
      <point x="715" y="602" type="line" smooth="yes"/>
      <point x="720" y="630"/>
      <point x="744" y="637"/>
      <point x="775" y="637" type="curve" smooth="yes"/>
      <point x="785" y="637" type="line"/>
      <point x="799" y="710" type="line"/>
      <point x="571" y="710" type="line"/>
      <point x="557" y="637" type="line"/>
      <point x="570" y="637" type="line" smooth="yes"/>
      <point x="599" y="637"/>
      <point x="629" y="630"/>
      <point x="628" y="623" type="curve" smooth="yes"/>
      <point x="561" y="222" type="line"/>
      <point x="426" y="710" type="line"/>
      <point x="96" y="710" type="line"/>
      <point x="83" y="637" type="line"/>
      <point x="93" y="637" type="line" smooth="yes"/>
      <point x="124" y="637"/>
      <point x="146" y="630"/>
      <point x="141" y="601" type="curve" smooth="yes"/>
      <point x="55" y="113" type="line" smooth="yes"/>
      <point x="50" y="84"/>
      <point x="25" y="73"/>
      <point x="-6" y="73" type="curve" smooth="yes"/>
      <point x="-16" y="73" type="line"/>
    </contour>
    <contour>
      <point x="406" y="741" type="move" name="top"/>
    </contour>
    <contour>
      <point x="406" y="0" type="move" name="bottom"/>
    </contour>
  </outline>
</glyph>
<glyph name="O" format="1">
  <advance width="801"/>
  <unicode hex="004F"/>
  <outline>
    <contour>
      <point x="776" y="393" type="curve" smooth="yes"/>
      <point x="776" y="586"/>
      <point x="638" y="720"/>
      <point x="438" y="720" type="curve" smooth="yes"/>
      <point x="182" y="720"/>
      <point x="29" y="537"/>
      <point x="29" y="317" type="curve" smooth="yes"/>
      <point x="29" y="124"/>
      <point x="168" y="-10"/>
      <point x="368" y="-10" type="curve" smooth="yes"/>
      <point x="623" y="-10"/>
      <point x="776" y="173"/>
    </contour>
    <contour>
      <point x="256" y="257" type="curve" smooth="yes"/>
      <point x="256" y="420"/>
      <point x="320" y="630"/>
      <point x="439" y="630" type="curve" smooth="yes"/>
      <point x="513" y="630"/>
      <point x="549" y="571"/>
      <point x="549" y="453" type="curve" smooth="yes"/>
      <point x="549" y="290"/>
      <point x="486" y="80"/>
      <point x="366" y="80" type="curve" smooth="yes"/>
      <point x="292" y="80"/>
      <point x="256" y="140"/>
    </contour>
    <contour>
      <point x="394" y="741" type="move" name="top"/>
    </contour>
    <contour>
      <point x="394" y="0" type="move" name="bottom"/>
    </contour>
  </outline>
</glyph>
<glyph name="T" format="1">
  <advance width="736"/>
  <unicode hex="0054"/>
  <outline>
    <contour>
      <point x="550" y="626" type="line" smooth="yes"/>
      <point x="621" y="626"/>
      <point x="651" y="619"/>
      <point x="648" y="583" type="curve" smooth="yes"/>
      <point x="637" y="472" type="line"/>
      <point x="734" y="472" type="line"/>
      <point x="776" y="710" type="line"/>
      <point x="95" y="710" type="line"/>
      <point x="53" y="472" type="line"/>
      <point x="150" y="472" type="line"/>
      <point x="178" y="583" type="line" smooth="yes"/>
      <point x="188" y="619"/>
      <point x="216" y="626"/>
      <point x="288" y="626" type="curve" smooth="yes"/>
      <point x="310" y="626" type="line"/>
      <point x="218" y="109" type="line" smooth="yes"/>
      <point x="213" y="81"/>
      <point x="191" y="73"/>
      <point x="160" y="73" type="curve" smooth="yes"/>
      <point x="145" y="73" type="line"/>
      <point x="132" y="0" type="line"/>
      <point x="484" y="0" type="line"/>
      <point x="498" y="73" type="line"/>
      <point x="483" y="73" type="line" smooth="yes"/>
      <point x="452" y="73"/>
      <point x="432" y="81"/>
      <point x="437" y="110" type="curve" smooth="yes"/>
      <point x="528" y="626" type="line"/>
    </contour>
    <contour>
      <point x="342" y="741" type="move" name="top"/>
    </contour>
    <contour>
      <point x="342" y="0" type="move" name="bottom"/>
    </contour>
  </outline>
</glyph>
<glyph name="W" format="1">
  <advance width="1028"/>
  <unicode hex="0057"/>
  <outline>
    <contour>
      <point x="77" y="710" type="line"/>
      <point x="64" y="637" type="line"/>
      <point x="70" y="637" type="line" smooth="yes"/>
      <point x="96" y="637"/>
      <point x="114" y="632"/>
      <point x="115" y="607" type="curve" smooth="yes"/>
      <point x="133" y="0" type="line"/>
      <point x="347" y="0" type="line"/>
      <point x="561" y="529" type="line"/>
      <point x="574" y="0" type="line"/>
      <point x="779" y="0" type="line"/>
      <point x="1010" y="594" type="line" smooth="yes"/>
      <point x="1023" y="627"/>
      <point x="1040" y="637"/>
      <point x="1067" y="637" type="curve" smooth="yes"/>
      <point x="1073" y="637" type="line"/>
      <point x="1086" y="710" type="line"/>
      <point x="884" y="710" type="line"/>
      <point x="870" y="637" type="line"/>
      <point x="885" y="637" type="line" smooth="yes"/>
      <point x="907" y="637"/>
      <point x="932" y="630"/>
      <point x="930" y="619" type="curve"/>
      <point x="768" y="192" type="line"/>
      <point x="749" y="710" type="line"/>
      <point x="549" y="710" type="line"/>
      <point x="336" y="182" type="line"/>
      <point x="333" y="627" type="line"/>
      <point x="334" y="634"/>
      <point x="362" y="637"/>
      <point x="384" y="637" type="curve" smooth="yes"/>
      <point x="399" y="637" type="line"/>
      <point x="413" y="710" type="line"/>
    </contour>
    <contour>
      <point x="537" y="741" type="move" name="top"/>
    </contour>
  </outline>
</glyph>
<glyph name="a" format="1">
  <advance width="650"/>
  <unicode hex="0061"/>
  <outline>
    <contour>
      <point x="205" y="-14" type="curve" smooth="yes"/>
      <point x="276" y="-14"/>
      <point x="321" y="21"/>
      <point x="363" y="83" type="curve"/>
      <point x="374" y="20"/>
      <point x="423" y="-11"/>
      <point x="496" y="-11" type="curve" smooth="yes"/>
      <point x="549" y="-11"/>
      <point x="595" y="6"/>
      <point x="617" y="18" type="curve"/>
      <point x="630" y="94" type="line"/>
      <point x="625" y="93"/>
      <point x="607" y="85"/>
      <point x="586" y="85" type="curve" smooth="yes"/>
      <point x="570" y="85"/>
      <point x="560" y="91"/>
      <point x="560" y="109" type="curve" smooth="yes"/>
      <point x="560" y="126"/>
      <point x="566" y="158"/>
      <point x="574" y="202" type="curve" smooth="yes"/>
      <point x="631" y="521" type="line"/>
      <point x="500" y="521" type="line"/>
      <point x="458" y="476" type="line"/>
      <point x="428" y="506"/>
      <point x="386" y="523"/>
      <point x="332" y="523" type="curve" smooth="yes"/>
      <point x="139" y="523"/>
      <point x="26" y="362"/>
      <point x="26" y="185" type="curve" smooth="yes"/>
      <point x="26" y="62"/>
      <point x="94" y="-14"/>
    </contour>
    <contour>
      <point x="237" y="181" type="curve" smooth="yes"/>
      <point x="237" y="280"/>
      <point x="279" y="444"/>
      <point x="360" y="444" type="curve" smooth="yes"/>
      <point x="380" y="444"/>
      <point x="396" y="436"/>
      <point x="407" y="421" type="curve"/>
      <point x="362" y="161" type="line"/>
      <point x="335" y="112"/>
      <point x="311" y="87"/>
      <point x="285" y="87" type="curve" smooth="yes"/>
      <point x="253" y="87"/>
      <point x="237" y="113"/>
    </contour>
    <contour>
      <point x="294" y="553" type="move" name="top"/>
    </contour>
    <contour>
      <point x="469" y="-10" type="move" name="right"/>
    </contour>
    <contour>
      <point x="324" y="0" type="move" name="bottom"/>
    </contour>
  </outline>
</glyph>
<glyph name="e" format="1">
  <advance width="555"/>
  <unicode hex="0065"/>
  <outline>
    <contour>
      <point x="515" y="131" type="curve"/>
      <point x="451" y="174" type="line"/>
      <point x="421" y="117"/>
      <point x="382" y="77"/>
      <point x="325" y="77" type="curve" smooth="yes"/>
      <point x="267" y="77"/>
      <point x="236" y="116"/>
      <point x="233" y="202" type="curve"/>
      <point x="436" y="222"/>
      <point x="538" y="275"/>
      <point x="538" y="384" type="curve" smooth="yes"/>
      <point x="538" y="464"/>
      <point x="473" y="523"/>
      <point x="348" y="523" type="curve" smooth="yes"/>
      <point x="148" y="523"/>
      <point x="26" y="371"/>
      <point x="26" y="219" type="curve" smooth="yes"/>
      <point x="26" y="81"/>
      <point x="120" y="-14"/>
      <point x="286" y="-14" type="curve" smooth="yes"/>
      <point x="405" y="-14"/>
      <point x="482" y="53"/>
    </contour>
    <contour>
      <point x="333" y="439" type="curve" smooth="yes"/>
      <point x="362" y="439"/>
      <point x="375" y="419"/>
      <point x="375" y="387" type="curve" smooth="yes"/>
      <point x="375" y="321"/>
      <point x="336" y="283"/>
      <point x="235" y="266" type="curve"/>
      <point x="245" y="373"/>
      <point x="285" y="439"/>
    </contour>
  </outline>
</glyph>
<glyph name="h" format="1">
  <advance width="657"/>
  <unicode hex="0068"/>
  <outline>
    <contour>
      <point x="219" y="0" type="line"/>
      <point x="281" y="343" type="line"/>
      <point x="312" y="386"/>
      <point x="345" y="413"/>
      <point x="374" y="413" type="curve" smooth="yes"/>
      <point x="399" y="413"/>
      <point x="408" y="399"/>
      <point x="408" y="377" type="curve" smooth="yes"/>
      <point x="408" y="360"/>
      <point x="404" y="341"/>
      <point x="398" y="311" type="curve" smooth="yes"/>
      <point x="381" y="228" type="line" smooth="yes"/>
      <point x="369" y="169"/>
      <point x="365" y="137"/>
      <point x="365" y="110" type="curve" smooth="yes"/>
      <point x="365" y="28"/>
      <point x="420" y="-11"/>
      <point x="500" y="-11" type="curve" smooth="yes"/>
      <point x="552" y="-11"/>
      <point x="598" y="5"/>
      <point x="621" y="20" type="curve"/>
      <point x="635" y="94" type="line"/>
      <point x="630" y="93"/>
      <point x="612" y="85"/>
      <point x="593" y="85" type="curve" smooth="yes"/>
      <point x="576" y="85"/>
      <point x="566" y="91"/>
      <point x="566" y="109" type="curve" smooth="yes"/>
      <point x="566" y="126"/>
      <point x="574" y="157"/>
      <point x="582" y="201" type="curve" smooth="yes"/>
      <point x="601" y="292" type="line" smooth="yes"/>
      <point x="611" y="344"/>
      <point x="616" y="376"/>
      <point x="616" y="403" type="curve" smooth="yes"/>
      <point x="616" y="475"/>
      <point x="568" y="523"/>
      <point x="481" y="523" type="curve" smooth="yes"/>
      <point x="402" y="523"/>
      <point x="345" y="485"/>
      <point x="295" y="424" type="curve"/>
      <point x="351" y="735" type="line"/>
      <point x="93" y="735" type="line"/>
      <point x="80" y="664" type="line"/>
      <point x="90" y="662" type="line" smooth="yes"/>
      <point x="117" y="656"/>
      <point x="129" y="650"/>
      <point x="126" y="631" type="curve" smooth="yes"/>
      <point x="13" y="0" type="line"/>
    </contour>
    <contour>
      <point x="314" y="755" type="move" name="top"/>
    </contour>
    <contour>
      <point x="302" y="0" type="move" name="bottom"/>
    </contour>
  </outline>
</glyph>
<glyph name="m" format="1">
  <advance width="941"/>
  <unicode hex="006D"/>
  <outline>
    <contour>
      <point x="222" y="0" type="line"/>
      <point x="284" y="347" type="line"/>
      <point x="310" y="388"/>
      <point x="336" y="413"/>
      <point x="361" y="413" type="curve" smooth="yes"/>
      <point x="380" y="413"/>
      <point x="386" y="400"/>
      <point x="386" y="379" type="curve" smooth="yes"/>
      <point x="386" y="363"/>
      <point x="383" y="341"/>
      <point x="378" y="311" type="curve" smooth="yes"/>
      <point x="323" y="0" type="line"/>
      <point x="529" y="0" type="line"/>
      <point x="580" y="293" type="line" smooth="yes"/>
      <point x="584" y="315"/>
      <point x="587" y="334"/>
      <point x="589" y="349" type="curve"/>
      <point x="615" y="389"/>
      <point x="642" y="413"/>
      <point x="666" y="413" type="curve" smooth="yes"/>
      <point x="685" y="413"/>
      <point x="692" y="399"/>
      <point x="692" y="377" type="curve" smooth="yes"/>
      <point x="692" y="360"/>
      <point x="688" y="341"/>
      <point x="682" y="311" type="curve" smooth="yes"/>
      <point x="665" y="228" type="line" smooth="yes"/>
      <point x="653" y="169"/>
      <point x="649" y="137"/>
      <point x="649" y="110" type="curve" smooth="yes"/>
      <point x="649" y="28"/>
      <point x="704" y="-11"/>
      <point x="783" y="-11" type="curve" smooth="yes"/>
      <point x="836" y="-11"/>
      <point x="881" y="5"/>
      <point x="905" y="20" type="curve"/>
      <point x="919" y="94" type="line"/>
      <point x="914" y="93"/>
      <point x="896" y="85"/>
      <point x="877" y="85" type="curve" smooth="yes"/>
      <point x="859" y="85"/>
      <point x="850" y="91"/>
      <point x="850" y="109" type="curve" smooth="yes"/>
      <point x="850" y="126"/>
      <point x="857" y="157"/>
      <point x="866" y="201" type="curve" smooth="yes"/>
      <point x="884" y="292" type="line" smooth="yes"/>
      <point x="895" y="344"/>
      <point x="899" y="376"/>
      <point x="899" y="403" type="curve" smooth="yes"/>
      <point x="899" y="475"/>
      <point x="855" y="523"/>
      <point x="774" y="523" type="curve" smooth="yes"/>
      <point x="697" y="523"/>
      <point x="643" y="482"/>
      <point x="594" y="415" type="curve"/>
      <point x="589" y="480"/>
      <point x="545" y="523"/>
      <point x="470" y="523" type="curve" smooth="yes"/>
      <point x="391" y="523"/>
      <point x="336" y="479"/>
      <point x="286" y="410" type="curve"/>
      <point x="302" y="513" type="line"/>
      <point x="55" y="513" type="line"/>
      <point x="43" y="441" type="line"/>
      <point x="53" y="439" type="line" smooth="yes"/>
      <point x="80" y="434"/>
      <point x="93" y="428"/>
      <point x="89" y="408" type="curve" smooth="yes"/>
      <point x="16" y="0" type="line"/>
    </contour>
    <contour>
      <point x="438" y="-10" type="move" name="bottom"/>
    </contour>
  </outline>
</glyph>
<glyph name="o" format="1">
  <advance width="646"/>
  <unicode hex="006F"/>
  <outline>
    <contour>
      <point x="306" y="-14" type="curve" smooth="yes"/>
      <point x="497" y="-14"/>
      <point x="620" y="110"/>
      <point x="620" y="275" type="curve" smooth="yes"/>
      <point x="620" y="427"/>
      <point x="508" y="523"/>
      <point x="340" y="523" type="curve" smooth="yes"/>
      <point x="150" y="523"/>
      <point x="26" y="399"/>
      <point x="26" y="234" type="curve" smooth="yes"/>
      <point x="26" y="82"/>
      <point x="140" y="-14"/>
    </contour>
    <contour>
      <point x="348" y="437" type="curve" smooth="yes"/>
      <point x="390" y="437"/>
      <point x="409" y="402"/>
      <point x="409" y="338" type="curve" smooth="yes"/>
      <point x="409" y="236"/>
      <point x="374" y="72"/>
      <point x="298" y="72" type="curve" smooth="yes"/>
      <point x="257" y="72"/>
      <point x="237" y="108"/>
      <point x="237" y="172" type="curve" smooth="yes"/>
      <point x="237" y="274"/>
      <point x="272" y="437"/>
    </contour>
    <contour>
      <point x="302" y="551" type="move" name="top"/>
    </contour>
    <contour>
      <point x="404" y="0" type="move" name="right"/>
    </contour>
    <contour>
      <point x="302" y="0" type="move" name="bottom"/>
    </contour>
  </outline>
</glyph>
<glyph name="w" format="1">
  <advance width="838"/>
  <unicode hex="0077"/>
  <outline>
    <contour>
      <point x="72" y="408" type="curve" smooth="yes"/>
      <point x="107" y="0" type="line"/>
      <point x="285" y="0" type="line"/>
      <point x="415" y="308" type="line"/>
      <point x="455" y="0" type="line"/>
      <point x="625" y="0" type="line"/>
      <point x="857" y="500" type="line"/>
      <point x="857" y="513" type="line"/>
      <point x="724" y="513" type="line"/>
      <point x="609" y="148" type="line"/>
      <point x="568" y="513" type="line"/>
      <point x="412" y="513" type="line"/>
      <point x="274" y="167" type="line"/>
      <point x="253" y="513" type="line"/>
      <point x="31" y="513" type="line"/>
      <point x="19" y="441" type="line"/>
      <point x="28" y="439" type="line" smooth="yes"/>
      <point x="56" y="433"/>
      <point x="70" y="428"/>
    </contour>
  </outline>
</glyph>
<glyph name="x" format="1">
  <advance width="592"/>
  <unicode hex="0078"/>
  <outline>
    <contour>
      <point x="443" y="158" type="curve" smooth="yes"/>
      <point x="399" y="275" type="line"/>
      <point x="604" y="503" type="line"/>
      <point x="604" y="513" type="line"/>
      <point x="466" y="513" type="line"/>
      <point x="369" y="354" type="line"/>
      <point x="309" y="513" type="line"/>
      <point x="88" y="513" type="line"/>
      <point x="76" y="441" type="line"/>
      <point x="91" y="439" type="line" smooth="yes"/>
      <point x="123" y="435"/>
      <point x="135" y="428"/>
      <point x="143" y="407" type="curve" smooth="yes"/>
      <point x="202" y="248" type="line"/>
      <point x="-11" y="12" type="line"/>
      <point x="-11" y="0" type="line"/>
      <point x="132" y="0" type="line"/>
      <point x="235" y="162" type="line"/>
      <point x="251" y="118" type="line" smooth="yes"/>
      <point x="289" y="17"/>
      <point x="333" y="-12"/>
      <point x="415" y="-12" type="curve"/>
      <point x="468" y="-12"/>
      <point x="521" y="3"/>
      <point x="546" y="15" type="curve"/>
      <point x="551" y="94" type="line"/>
      <point x="547" y="93"/>
      <point x="528" y="84"/>
      <point x="509" y="84" type="curve" smooth="yes"/>
      <point x="481" y="84"/>
      <point x="466" y="98"/>
    </contour>
  </outline>
</glyph>
<glyph name="cent" format="1">
  <advance width="560"/>
  <unicode hex="00A2"/>
  <outline>
    <contour>
      <point x="325" y="623" type="line"/>
      <point x="307" y="522" type="line"/>
      <point x="133" y="510"/>
      <point x="22" y="387"/>
      <point x="22" y="220" type="curve" smooth="yes"/>
      <point x="22" y="95"/>
      <point x="95" y="13"/>
      <point x="213" y="-8" type="curve"/>
      <point x="192" y="-126" type="line"/>
      <point x="289" y="-126" type="line"/>
      <point x="309" y="-13" type="line"/>
      <point x="414" y="-3"/>
      <point x="478" y="53"/>
      <point x="514" y="140" type="curve"/>
      <point x="448" y="184" type="line"/>
      <point x="424" y="132"/>
      <point x="385" y="70"/>
      <point x="307" y="70" type="curve" smooth="yes"/>
      <point x="307" y="70" type="line"/>
      <point x="373" y="439" type="line"/>
      <point x="392" y="436"/>
      <point x="406" y="431"/>
      <point x="417" y="423" type="curve"/>
      <point x="399" y="325" type="line"/>
      <point x="529" y="325" type="line"/>
      <point x="552" y="457" type="line"/>
      <point x="535" y="475"/>
      <point x="490" y="507"/>
      <point x="404" y="519" type="curve"/>
      <point x="422" y="623" type="line"/>
    </contour>
    <contour>
      <point x="203" y="197" type="curve" smooth="yes"/>
      <point x="203" y="295"/>
      <point x="239" y="407"/>
      <point x="308" y="435" type="curve"/>
      <point x="245" y="84" type="line"/>
      <point x="215" y="103"/>
      <point x="203" y="140"/>
    </contour>
  </outline>
</glyph>
<glyph name="currency" format="1">
  <advance width="560"/>
  <unicode hex="00A4"/>
  <outline>
    <contour>
      <point x="-15" y="179" type="line"/>
      <point x="56" y="93" type="line"/>
      <point x="164" y="185" type="line"/>
      <point x="196" y="166"/>
      <point x="235" y="155"/>
      <point x="277" y="155" type="curve"/>
      <point x="307" y="155"/>
      <point x="335" y="160"/>
      <point x="360" y="169" type="curve"/>
      <point x="424" y="92" type="line"/>
      <point x="524" y="177" type="line"/>
      <point x="466" y="247" type="line"/>
      <point x="495" y="286"/>
      <point x="511" y="335"/>
      <point x="511" y="386" type="curve" smooth="yes"/>
      <point x="511" y="421"/>
      <point x="503" y="453"/>
      <point x="489" y="481" type="curve"/>
      <point x="591" y="567" type="line"/>
      <point x="520" y="653" type="line"/>
      <point x="413" y="562" type="line"/>
      <point x="381" y="581"/>
      <point x="343" y="591"/>
      <point x="301" y="591" type="curve"/>
      <point x="271" y="591"/>
      <point x="243" y="586"/>
      <point x="217" y="577" type="curve"/>
      <point x="152" y="655" type="line"/>
      <point x="52" y="570" type="line"/>
      <point x="112" y="498" type="line"/>
      <point x="83" y="459"/>
      <point x="67" y="411"/>
      <point x="67" y="360" type="curve"/>
      <point x="67" y="326"/>
      <point x="75" y="294"/>
      <point x="88" y="267" type="curve"/>
    </contour>
    <contour>
      <point x="285" y="285" type="curve" smooth="yes"/>
      <point x="235" y="285"/>
      <point x="204" y="321"/>
      <point x="204" y="368" type="curve"/>
      <point x="204" y="423"/>
      <point x="239" y="461"/>
      <point x="293" y="461" type="curve" smooth="yes"/>
      <point x="343" y="461"/>
      <point x="373" y="426"/>
      <point x="373" y="379" type="curve" smooth="yes"/>
      <point x="373" y="323"/>
      <point x="339" y="285"/>
    </contour>
  </outline>
</glyph>
<glyph name="acute" format="1">
  <advance width="500"/>
  <unicode hex="00B4"/>
  <outline>
    <contour>
      <point x="221" y="689" type="curve" smooth="yes"/>
      <point x="176" y="585" type="line"/>
      <point x="173" y="556" type="line"/>
      <point x="230" y="556" type="line"/>
      <point x="312" y="606" type="line" smooth="yes"/>
      <point x="370" y="636"/>
      <point x="400" y="663"/>
      <point x="400" y="708" type="curve" smooth="yes"/>
      <point x="400" y="745"/>
      <point x="372" y="778"/>
      <point x="323" y="778" type="curve" smooth="yes"/>
      <point x="272" y="778"/>
      <point x="246" y="746"/>
    </contour>
    <contour>
      <point x="209" y="527" type="move" name="_top"/>
    </contour>
  </outline>
</glyph>
<glyph name="Eth" format="1">
  <advance width="806"/>
  <unicode hex="00D0"/>
  <outline>
    <contour>
      <point x="40" y="399" type="line"/>
      <point x="24" y="311" type="line"/>
      <point x="90" y="311" type="line"/>
      <point x="54" y="109" type="line" smooth="yes"/>
      <point x="49" y="80"/>
      <point x="26" y="73"/>
      <point x="-5" y="73" type="curve" smooth="yes"/>
      <point x="-16" y="73" type="line"/>
      <point x="-30" y="0" type="line"/>
      <point x="322" y="0" type="line" smooth="yes"/>
      <point x="635" y="0"/>
      <point x="783" y="184"/>
      <point x="783" y="402" type="curve" smooth="yes"/>
      <point x="783" y="595"/>
      <point x="640" y="710"/>
      <point x="401" y="710" type="curve" smooth="yes"/>
      <point x="97" y="710" type="line"/>
      <point x="83" y="637" type="line"/>
      <point x="94" y="637" type="line" smooth="yes"/>
      <point x="125" y="637"/>
      <point x="146" y="628"/>
      <point x="141" y="601" type="curve" smooth="yes"/>
      <point x="105" y="399" type="line"/>
    </contour>
    <contour>
      <point x="396" y="626" type="line" smooth="yes"/>
      <point x="505" y="626"/>
      <point x="556" y="564"/>
      <point x="556" y="435" type="curve" smooth="yes"/>
      <point x="556" y="261"/>
      <point x="484" y="85"/>
      <point x="318" y="85" type="curve" smooth="yes"/>
      <point x="268" y="85" type="line"/>
      <point x="308" y="311" type="line"/>
      <point x="428" y="311" type="line"/>
      <point x="444" y="399" type="line"/>
      <point x="324" y="399" type="line"/>
      <point x="364" y="626" type="line"/>
    </contour>
  </outline>
</glyph>
<glyph name="Oslash" format="1">
  <advance width="801"/>
  <unicode hex="00D8"/>
  <outline>
    <contour>
      <point x="778" y="393" type="curve" smooth="yes"/>
      <point x="778" y="470"/>
      <point x="756" y="538"/>
      <point x="716" y="592" type="curve"/>
      <point x="866" y="725" type="line"/>
      <point x="752" y="725" type="line"/>
      <point x="664" y="647" type="line"/>
      <point x="606" y="693"/>
      <point x="529" y="720"/>
      <point x="440" y="720" type="curve" smooth="yes"/>
      <point x="185" y="720"/>
      <point x="31" y="537"/>
      <point x="31" y="317" type="curve" smooth="yes"/>
      <point x="31" y="246"/>
      <point x="50" y="182"/>
      <point x="84" y="131" type="curve"/>
      <point x="-80" y="-15" type="line"/>
      <point x="35" y="-15" type="line"/>
      <point x="134" y="73" type="line"/>
      <point x="193" y="20"/>
      <point x="275" y="-10"/>
      <point x="370" y="-10" type="curve" smooth="yes"/>
      <point x="625" y="-10"/>
      <point x="778" y="173"/>
    </contour>
    <contour>
      <point x="443" y="630" type="curve" smooth="yes"/>
      <point x="500" y="630"/>
      <point x="533" y="603"/>
      <point x="547" y="542" type="curve"/>
      <point x="256" y="283" type="line"/>
      <point x="262" y="442"/>
      <point x="327" y="630"/>
    </contour>
    <contour>
      <point x="367" y="80" type="curve" smooth="yes"/>
      <point x="305" y="80"/>
      <point x="272" y="113"/>
      <point x="260" y="185" type="curve"/>
      <point x="555" y="448" type="line"/>
      <point x="555" y="290"/>
      <point x="490" y="80"/>
    </contour>
    <contour>
      <point x="382" y="731" type="move" name="top"/>
    </contour>
  </outline>
</glyph>
<glyph name="divide" format="1">
  <advance width="560"/>
  <unicode hex="00F7"/>
  <outline>
    <contour>
      <point x="419" y="547" type="curve" smooth="yes"/>
      <point x="419" y="598"/>
      <point x="382" y="634"/>
      <point x="321" y="634" type="curve" smooth="yes"/>
      <point x="260" y="634"/>
      <point x="224" y="598"/>
      <point x="224" y="547" type="curve" smooth="yes"/>
      <point x="224" y="495"/>
      <point x="260" y="460"/>
      <point x="321" y="460" type="curve" smooth="yes"/>
      <point x="382" y="460"/>
      <point x="419" y="495"/>
    </contour>
    <contour>
      <point x="349" y="135" type="curve" smooth="yes"/>
      <point x="349" y="186"/>
      <point x="312" y="222"/>
      <point x="251" y="222" type="curve" smooth="yes"/>
      <point x="190" y="222"/>
      <point x="154" y="186"/>
      <point x="154" y="135" type="curve" smooth="yes"/>
      <point x="154" y="83"/>
      <point x="190" y="48"/>
      <point x="251" y="48" type="curve" smooth="yes"/>
      <point x="312" y="48"/>
      <point x="349" y="83"/>
    </contour>
    <contour>
      <point x="513" y="402" type="line"/>
      <point x="72" y="402" type="line"/>
      <point x="51" y="280" type="line"/>
      <point x="492" y="280" type="line"/>
    </contour>
  </outline>
</glyph>
<glyph name="eogonek" format="1">
  <advance width="555"/>
  <unicode hex="0119"/>
  <outline>
    <contour>
      <point x="455" y="-179" type="curve"/>
      <point x="420" y="-128" type="line"/>
      <point x="409" y="-138"/>
      <point x="391" y="-153"/>
      <point x="368" y="-153" type="curve" smooth="yes"/>
      <point x="345" y="-153"/>
      <point x="331" y="-141"/>
      <point x="331" y="-116" type="curve" smooth="yes"/>
      <point x="331" y="-63"/>
      <point x="390" y="-19"/>
      <point x="461" y="51" type="curve" smooth="yes"/>
      <point x="488" y="78"/>
      <point x="505" y="104"/>
      <point x="517" y="132" type="curve"/>
      <point x="453" y="175" type="line"/>
      <point x="423" y="118"/>
      <point x="384" y="77"/>
      <point x="326" y="77" type="curve" smooth="yes"/>
      <point x="268" y="77"/>
      <point x="237" y="116"/>
      <point x="233" y="202" type="curve"/>
      <point x="436" y="222"/>
      <point x="537" y="275"/>
      <point x="537" y="383" type="curve" smooth="yes"/>
      <point x="537" y="464"/>
      <point x="472" y="523"/>
      <point x="347" y="523" type="curve" smooth="yes"/>
      <point x="146" y="523"/>
      <point x="26" y="371"/>
      <point x="26" y="220" type="curve" smooth="yes"/>
      <point x="26" y="84"/>
      <point x="119" y="-11"/>
      <point x="281" y="-14" type="curve"/>
      <point x="203" y="-53"/>
      <point x="171" y="-92"/>
      <point x="171" y="-142" type="curve" smooth="yes"/>
      <point x="171" y="-209"/>
      <point x="227" y="-244"/>
      <point x="309" y="-244" type="curve" smooth="yes"/>
      <point x="374" y="-244"/>
      <point x="419" y="-215"/>
    </contour>
    <contour>
      <point x="332" y="439" type="curve" smooth="yes"/>
      <point x="361" y="439"/>
      <point x="374" y="419"/>
      <point x="374" y="386" type="curve" smooth="yes"/>
      <point x="374" y="321"/>
      <point x="336" y="283"/>
      <point x="235" y="266" type="curve"/>
      <point x="244" y="373"/>
      <point x="283" y="439"/>
    </contour>
  </outline>
</glyph>
<glyph name="itilde" format="1">
  <advance width="334"/>
  <unicode hex="0129"/>
  <outline>
    <contour>
      <point x="82" y="559" type="line"/>
      <point x="94" y="599"/>
      <point x="106" y="617"/>
      <point x="129" y="617" type="curve" smooth="yes"/>
      <point x="165" y="617"/>
      <point x="185" y="560"/>
      <point x="259" y="560" type="curve" smooth="yes"/>
      <point x="321" y="560"/>
      <point x="368" y="607"/>
      <point x="397" y="709" type="curve"/>
      <point x="320" y="744" type="line"/>
      <point x="306" y="705"/>
      <point x="294" y="685"/>
      <point x="272" y="685" type="curve" smooth="yes"/>
      <point x="229" y="685"/>
      <point x="212" y="740"/>
      <point x="140" y="740" type="curve" smooth="yes"/>
      <point x="70" y="740"/>
      <point x="31" y="696"/>
      <point x="4" y="592" type="curve"/>
    </contour>
    <component base="dotlessi"/>
  </outline>
</glyph>
<glyph name="dotlessi" format="1">
  <advance width="334"/>
  <unicode hex="0131"/>
  <outline>
    <contour>
      <point x="256" y="201" type="curve" smooth="yes"/>
      <point x="312" y="513" type="line"/>
      <point x="55" y="513" type="line"/>
      <point x="42" y="441" type="line"/>
      <point x="52" y="439" type="line" smooth="yes"/>
      <point x="79" y="434"/>
      <point x="92" y="428"/>
      <point x="89" y="408" type="curve" smooth="yes"/>
      <point x="55" y="228" type="line" smooth="yes"/>
      <point x="44" y="169"/>
      <point x="39" y="139"/>
      <point x="39" y="111" type="curve" smooth="yes"/>
      <point x="39" y="30"/>
      <point x="97" y="-11"/>
      <point x="177" y="-11" type="curve" smooth="yes"/>
      <point x="231" y="-11"/>
      <point x="278" y="6"/>
      <point x="298" y="18" type="curve"/>
      <point x="312" y="94" type="line"/>
      <point x="306" y="93"/>
      <point x="288" y="85"/>
      <point x="269" y="85" type="curve" smooth="yes"/>
      <point x="251" y="85"/>
      <point x="242" y="91"/>
      <point x="242" y="109" type="curve" smooth="yes"/>
      <point x="242" y="126"/>
      <point x="248" y="157"/>
    </contour>
    <contour>
      <point x="166" y="530" type="move" name="top"/>
    </contour>
  </outline>
</glyph>
<glyph name="lslash" format="1">
  <advance width="383"/>
  <unicode hex="0142"/>
  <outline>
    <contour>
      <point x="1" y="195" type="line"/>
      <point x="386" y="431" type="line"/>
      <point x="404" y="526" type="line"/>
      <point x="19" y="290" type="line"/>
    </contour>
    <component base="l" xOffset="20"/>
  </outline>
</glyph>
<glyph name="oe" format="1">
  <advance width="935"/>
  <unicode hex="0153"/>
  <outline>
    <contour>
      <point x="340" y="523" type="curve" smooth="yes"/>
      <point x="149" y="523"/>
      <point x="26" y="399"/>
      <point x="26" y="234" type="curve" smooth="yes"/>
      <point x="26" y="82"/>
      <point x="137" y="-14"/>
      <point x="292" y="-14" type="curve" smooth="yes"/>
      <point x="381" y="-14"/>
      <point x="450" y="21"/>
      <point x="498" y="73" type="curve"/>
      <point x="535" y="22"/>
      <point x="595" y="-14"/>
      <point x="675" y="-14" type="curve" smooth="yes"/>
      <point x="793" y="-14"/>
      <point x="865" y="52"/>
      <point x="900" y="119" type="curve"/>
      <point x="842" y="167" type="line"/>
      <point x="808" y="114"/>
      <point x="770" y="77"/>
      <point x="716" y="77" type="curve" smooth="yes"/>
      <point x="655" y="77"/>
      <point x="621" y="118"/>
      <point x="617" y="203" type="curve"/>
      <point x="819" y="221"/>
      <point x="918" y="275"/>
      <point x="918" y="384" type="curve" smooth="yes"/>
      <point x="918" y="463"/>
      <point x="853" y="523"/>
      <point x="742" y="523" type="curve" smooth="yes"/>
      <point x="652" y="523"/>
      <point x="581" y="484"/>
      <point x="532" y="429" type="curve"/>
      <point x="492" y="486"/>
      <point x="427" y="523"/>
    </contour>
    <contour>
      <point x="711" y="439" type="curve" smooth="yes"/>
      <point x="742" y="439"/>
      <point x="754" y="417"/>
      <point x="754" y="383" type="curve" smooth="yes"/>
      <point x="754" y="318"/>
      <point x="718" y="281"/>
      <point x="619" y="266" type="curve"/>
      <point x="626" y="378"/>
      <point x="661" y="439"/>
    </contour>
    <contour>
      <point x="298" y="72" type="curve" smooth="yes"/>
      <point x="256" y="72"/>
      <point x="237" y="108"/>
      <point x="237" y="172" type="curve" smooth="yes"/>
      <point x="237" y="274"/>
      <point x="273" y="437"/>
      <point x="349" y="437" type="curve" smooth="yes"/>
      <point x="391" y="437"/>
      <point x="410" y="402"/>
      <point x="410" y="338" type="curve" smooth="yes"/>
      <point x="410" y="236"/>
      <point x="374" y="72"/>
    </contour>
  </outline>
</glyph>
<glyph name="Ohorn" format="1">
  <advance width="801"/>
  <unicode hex="01A0"/>
  <outline>
    <contour>
      <point x="776" y="393" type="curve" smooth="yes"/>
      <point x="776" y="509"/>
      <point x="721" y="606"/>
      <point x="614" y="664" type="curve"/>
      <point x="767" y="664"/>
      <point x="855" y="722"/>
      <point x="875" y="877" type="curve"/>
      <point x="729" y="877" type="line"/>
      <point x="713" y="764"/>
      <point x="647" y="720"/>
      <point x="439" y="720" type="curve"/>
      <point x="439" y="720" type="line"/>
      <point x="438" y="720" type="line" smooth="yes"/>
      <point x="182" y="720"/>
      <point x="29" y="537"/>
      <point x="29" y="317" type="curve" smooth="yes"/>
      <point x="29" y="124"/>
      <point x="168" y="-10"/>
      <point x="368" y="-10" type="curve" smooth="yes"/>
      <point x="623" y="-10"/>
      <point x="776" y="173"/>
    </contour>
    <contour>
      <point x="256" y="257" type="curve" smooth="yes"/>
      <point x="256" y="420"/>
      <point x="320" y="630"/>
      <point x="439" y="630" type="curve" smooth="yes"/>
      <point x="513" y="630"/>
      <point x="549" y="571"/>
      <point x="549" y="453" type="curve" smooth="yes"/>
      <point x="549" y="290"/>
      <point x="486" y="80"/>
      <point x="366" y="80" type="curve" smooth="yes"/>
      <point x="292" y="80"/>
      <point x="256" y="140"/>
    </contour>
    <contour>
      <point x="382" y="742" type="move" name="top"/>
    </contour>
  </outline>
</glyph>
<glyph name="Uhorn" format="1">
  <advance width="827"/>
  <unicode hex="01AF"/>
  <outline>
    <contour>
      <point x="577" y="710" type="line"/>
      <point x="565" y="637" type="line"/>
      <point x="573" y="637" type="line" smooth="yes"/>
      <point x="597" y="637"/>
      <point x="626" y="631"/>
      <point x="624" y="617" type="curve" smooth="yes"/>
      <point x="566" y="287" type="line" smooth="yes"/>
      <point x="542" y="148"/>
      <point x="494" y="91"/>
      <point x="410" y="91" type="curve" smooth="yes"/>
      <point x="335" y="91"/>
      <point x="291" y="127"/>
      <point x="291" y="207" type="curve" smooth="yes"/>
      <point x="291" y="233"/>
      <point x="295" y="266"/>
      <point x="304" y="316" type="curve" smooth="yes"/>
      <point x="359" y="627" type="line" smooth="yes"/>
      <point x="360" y="634"/>
      <point x="391" y="637"/>
      <point x="415" y="637" type="curve" smooth="yes"/>
      <point x="424" y="637" type="line"/>
      <point x="436" y="710" type="line"/>
      <point x="90" y="710" type="line"/>
      <point x="78" y="637" type="line"/>
      <point x="88" y="637" type="line" smooth="yes"/>
      <point x="118" y="637"/>
      <point x="140" y="630"/>
      <point x="135" y="602" type="curve" smooth="yes"/>
      <point x="89" y="340" type="line" smooth="yes"/>
      <point x="79" y="284"/>
      <point x="76" y="251"/>
      <point x="76" y="219" type="curve" smooth="yes"/>
      <point x="76" y="63"/>
      <point x="179" y="-10"/>
      <point x="354" y="-10" type="curve" smooth="yes"/>
      <point x="516" y="-10"/>
      <point x="620" y="79"/>
      <point x="653" y="264" type="curve" smooth="yes"/>
      <point x="711" y="594" type="line" smooth="yes"/>
      <point x="717" y="628"/>
      <point x="732" y="639"/>
      <point x="769" y="648" type="curve" smooth="yes"/>
      <point x="862" y="672"/>
      <point x="928" y="725"/>
      <point x="945" y="877" type="curve"/>
      <point x="800" y="877" type="line"/>
      <point x="782" y="754"/>
      <point x="762" y="710"/>
      <point x="639" y="710" type="curve" smooth="yes"/>
    </contour>
    <contour>
      <point x="404" y="663" type="move" name="top"/>
    </contour>
  </outline>
</glyph>
<glyph name="dotlessj" format="1">
  <advance width="349"/>
  <unicode hex="0237"/>
  <outline>
    <contour>
      <point x="52" y="13" type="line" smooth="yes"/>
      <point x="31" y="-108"/>
      <point x="4" y="-147"/>
      <point x="-47" y="-147" type="curve" smooth="yes"/>
      <point x="-85" y="-147"/>
      <point x="-126" y="-127"/>
      <point x="-134" y="-125" type="curve"/>
      <point x="-154" y="-208" type="line"/>
      <point x="-130" y="-219"/>
      <point x="-77" y="-236"/>
      <point x="-2" y="-236" type="curve" smooth="yes"/>
      <point x="143" y="-236"/>
      <point x="226" y="-181"/>
      <point x="257" y="4" type="curve" smooth="yes"/>
      <point x="346" y="513" type="line"/>
      <point x="88" y="513" type="line"/>
      <point x="75" y="441" type="line"/>
      <point x="86" y="439" type="line" smooth="yes"/>
      <point x="114" y="434"/>
      <point x="127" y="428"/>
      <point x="123" y="408" type="curve" smooth="yes"/>
    </contour>
    <contour>
      <point x="176" y="521" type="move" name="top"/>
    </contour>
  </outline>
</glyph>
<glyph name="ring" format="1">
  <advance width="500"/>
  <unicode hex="02DA"/>
  <outline>
    <contour>
      <point x="255" y="556" type="curve" smooth="yes"/>
      <point x="336" y="556"/>
      <point x="398" y="595"/>
      <point x="398" y="672" type="curve" smooth="yes"/>
      <point x="398" y="738"/>
      <point x="339" y="772"/>
      <point x="262" y="772" type="curve" smooth="yes"/>
      <point x="183" y="772"/>
      <point x="119" y="733"/>
      <point x="119" y="656" type="curve" smooth="yes"/>
      <point x="119" y="590"/>
      <point x="180" y="556"/>
    </contour>
    <contour>
      <point x="255" y="616" type="curve" smooth="yes"/>
      <point x="231" y="616"/>
      <point x="218" y="632"/>
      <point x="218" y="657" type="curve" smooth="yes"/>
      <point x="218" y="691"/>
      <point x="235" y="712"/>
      <point x="262" y="712" type="curve" smooth="yes"/>
      <point x="286" y="712"/>
      <point x="299" y="696"/>
      <point x="299" y="672" type="curve" smooth="yes"/>
      <point x="299" y="637"/>
      <point x="282" y="616"/>
    </contour>
    <contour>
      <point x="250" y="526" type="move" name="_top"/>
    </contour>
  </outline>
</glyph>
<glyph name="ogonek" format="1">
  <advance width="600"/>
  <unicode hex="02DB"/>
  <outline>
    <contour>
      <point x="430" y="41" type="curve"/>
      <point x="228" y="-13"/>
      <point x="156" y="-63"/>
      <point x="156" y="-142" type="curve" smooth="yes"/>
      <point x="156" y="-209"/>
      <point x="213" y="-244"/>
      <point x="295" y="-244" type="curve" smooth="yes"/>
      <point x="359" y="-244"/>
      <point x="404" y="-215"/>
      <point x="440" y="-179" type="curve"/>
      <point x="405" y="-128" type="line"/>
      <point x="394" y="-138"/>
      <point x="376" y="-153"/>
      <point x="353" y="-153" type="curve" smooth="yes"/>
      <point x="331" y="-153"/>
      <point x="316" y="-141"/>
      <point x="316" y="-116" type="curve" smooth="yes"/>
      <point x="316" y="-84"/>
      <point x="332" y="-47"/>
      <point x="451" y="13" type="curve"/>
      <point x="449" y="15"/>
      <point x="432" y="37"/>
    </contour>
    <contour>
      <point x="356" y="9" type="move" name="_right"/>
    </contour>
  </outline>
</glyph>
<glyph name="daggerdbl" format="1">
  <advance width="530"/>
  <unicode hex="2021"/>
  <outline>
    <contour>
      <point x="124" y="325" type="line"/>
      <point x="176" y="301"/>
      <point x="206" y="271"/>
      <point x="202" y="218" type="curve"/>
      <point x="54" y="277" type="line"/>
      <point x="17" y="277" type="line"/>
      <point x="-12" y="114" type="line"/>
      <point x="26" y="114" type="line"/>
      <point x="186" y="165" type="line"/>
      <point x="158" y="116"/>
      <point x="100" y="63"/>
      <point x="95" y="36" type="curve" smooth="yes"/>
      <point x="88" y="0" type="line"/>
      <point x="324" y="0" type="line"/>
      <point x="331" y="35" type="line" smooth="yes"/>
      <point x="336" y="63"/>
      <point x="295" y="114"/>
      <point x="285" y="165" type="curve"/>
      <point x="428" y="114" type="line"/>
      <point x="466" y="114" type="line"/>
      <point x="494" y="277" type="line"/>
      <point x="457" y="277" type="line"/>
      <point x="288" y="218" type="line"/>
      <point x="303" y="267"/>
      <point x="344" y="297"/>
      <point x="403" y="323" type="curve"/>
      <point x="415" y="385" type="line"/>
      <point x="363" y="408"/>
      <point x="333" y="438"/>
      <point x="337" y="492" type="curve"/>
      <point x="485" y="433" type="line"/>
      <point x="523" y="433" type="line"/>
      <point x="551" y="597" type="line"/>
      <point x="514" y="597" type="line"/>
      <point x="353" y="545" type="line"/>
      <point x="381" y="595"/>
      <point x="439" y="647"/>
      <point x="444" y="675" type="curve" smooth="yes"/>
      <point x="451" y="710" type="line"/>
      <point x="215" y="710" type="line"/>
      <point x="208" y="676" type="line" smooth="yes"/>
      <point x="203" y="648"/>
      <point x="244" y="597"/>
      <point x="254" y="545" type="curve"/>
      <point x="111" y="597" type="line"/>
      <point x="74" y="597" type="line"/>
      <point x="45" y="433" type="line"/>
      <point x="83" y="433" type="line"/>
      <point x="251" y="492" type="line"/>
      <point x="237" y="441"/>
      <point x="195" y="413"/>
      <point x="136" y="387" type="curve"/>
    </contour>
  </outline>
</glyph>
<glyph name="second" format="1">
  <advance width="443"/>
  <unicode hex="2033"/>
  <outline>
    <contour>
      <point x="239" y="710" type="curve"/>
      <point x="89" y="710" type="line"/>
      <point x="73" y="622"/>
      <point x="95" y="592"/>
      <point x="70" y="450" type="curve"/>
      <point x="170" y="450" type="line"/>
      <point x="195" y="583"/>
      <point x="222" y="606"/>
    </contour>
    <contour>
      <point x="427" y="710" type="curve"/>
      <point x="277" y="710" type="line"/>
      <point x="261" y="622"/>
      <point x="283" y="592"/>
      <point x="258" y="450" type="curve"/>
      <point x="358" y="450" type="line"/>
      <point x="383" y="583"/>
      <point x="410" y="606"/>
    </contour>
  </outline>
</glyph>
<glyph name="guilsinglleft" format="1">
  <advance width="335"/>
  <unicode hex="2039"/>
  <outline>
    <contour>
      <point x="345" y="463" type="line"/>
      <point x="247" y="463" type="line"/>
      <point x="42" y="301" type="line"/>
      <point x="34" y="255" type="line"/>
      <point x="172" y="68" type="line"/>
      <point x="268" y="68" type="line"/>
      <point x="209" y="264" type="line"/>
    </contour>
  </outline>
</glyph>
<glyph name="Euro" format="1">
  <advance width="560"/>
  <unicode hex="20AC"/>
  <outline>
    <contour>
      <point x="18" y="314" type="line"/>
      <point x="2" y="229" type="line"/>
      <point x="70" y="229" type="line"/>
      <point x="82" y="75"/>
      <point x="168" y="-11"/>
      <point x="308" y="-11" type="curve"/>
      <point x="424" y="-11"/>
      <point x="489" y="57"/>
      <point x="530" y="156" type="curve"/>
      <point x="457" y="202" type="line"/>
      <point x="435" y="148"/>
      <point x="397" y="84"/>
      <point x="339" y="84" type="curve"/>
      <point x="292" y="84"/>
      <point x="262" y="122"/>
      <point x="262" y="218" type="curve" smooth="yes"/>
      <point x="262" y="222"/>
      <point x="262" y="225"/>
      <point x="262" y="229" type="curve"/>
      <point x="376" y="229" type="line"/>
      <point x="391" y="314" type="line"/>
      <point x="269" y="314" type="line"/>
      <point x="272" y="334"/>
      <point x="275" y="356"/>
      <point x="279" y="378" type="curve" smooth="yes"/>
      <point x="280" y="384" type="line"/>
      <point x="444" y="384" type="line"/>
      <point x="460" y="469" type="line"/>
      <point x="299" y="469" type="line"/>
      <point x="328" y="581"/>
      <point x="362" y="630"/>
      <point x="413" y="630" type="curve" smooth="yes"/>
      <point x="426" y="630"/>
      <point x="437" y="627"/>
      <point x="446" y="623" type="curve"/>
      <point x="431" y="540" type="line"/>
      <point x="586" y="540" type="line"/>
      <point x="605" y="660" type="line"/>
      <point x="585" y="681"/>
      <point x="525" y="720"/>
      <point x="416" y="720" type="curve" smooth="yes"/>
      <point x="250" y="720"/>
      <point x="145" y="613"/>
      <point x="98" y="469" type="curve"/>
      <point x="45" y="469" type="line"/>
      <point x="29" y="384" type="line"/>
      <point x="77" y="384" type="line"/>
      <point x="73" y="361"/>
      <point x="71" y="338"/>
      <point x="69" y="314" type="curve"/>
    </contour>
  </outline>
</glyph>
<glyph name="kip" format="1">
  <advance width="560"/>
  <unicode hex="20AD"/>
  <outline>
    <contour>
      <point x="38" y="417" type="line"/>
      <point x="23" y="332" type="line"/>
      <point x="65" y="332" type="line"/>
      <point x="24" y="102" type="line" smooth="yes"/>
      <point x="20" y="80"/>
      <point x="5" y="73"/>
      <point x="-14" y="73" type="curve" smooth="yes"/>
      <point x="-20" y="73" type="line"/>
      <point x="-34" y="0" type="line"/>
      <point x="223" y="0" type="line"/>
      <point x="236" y="73" type="line"/>
      <point x="232" y="73" type="line" smooth="yes"/>
      <point x="218" y="73"/>
      <point x="206" y="76"/>
      <point x="206" y="80" type="curve" smooth="yes"/>
      <point x="251" y="332" type="line"/>
      <point x="277" y="332" type="line"/>
      <point x="304" y="80" type="line"/>
      <point x="303" y="76"/>
      <point x="289" y="73"/>
      <point x="276" y="73" type="curve" smooth="yes"/>
      <point x="271" y="73" type="line"/>
      <point x="257" y="0" type="line"/>
      <point x="514" y="0" type="line"/>
      <point x="527" y="73" type="line"/>
      <point x="522" y="73" type="line" smooth="yes"/>
      <point x="506" y="73"/>
      <point x="496" y="79"/>
      <point x="492" y="100" type="curve" smooth="yes"/>
      <point x="460" y="332" type="line"/>
      <point x="549" y="332" type="line"/>
      <point x="564" y="417" type="line"/>
      <point x="449" y="417" type="line"/>
      <point x="444" y="455" type="line"/>
      <point x="547" y="601" type="line" smooth="yes"/>
      <point x="568" y="631"/>
      <point x="580" y="637"/>
      <point x="599" y="637" type="curve" smooth="yes"/>
      <point x="608" y="637" type="line"/>
      <point x="622" y="710" type="line"/>
      <point x="430" y="710" type="line"/>
      <point x="416" y="637" type="line"/>
      <point x="427" y="637" type="line" smooth="yes"/>
      <point x="445" y="637"/>
      <point x="467" y="635"/>
      <point x="466" y="628" type="curve"/>
      <point x="315" y="417" type="line"/>
      <point x="266" y="417" type="line"/>
      <point x="303" y="627" type="line" smooth="yes"/>
      <point x="304" y="634"/>
      <point x="324" y="637"/>
      <point x="342" y="637" type="curve" smooth="yes"/>
      <point x="352" y="637" type="line"/>
      <point x="366" y="710" type="line"/>
      <point x="92" y="710" type="line"/>
      <point x="79" y="637" type="line"/>
      <point x="85" y="637" type="line" smooth="yes"/>
      <point x="104" y="637"/>
      <point x="117" y="630"/>
      <point x="114" y="608" type="curve" smooth="yes"/>
      <point x="80" y="417" type="line"/>
    </contour>
  </outline>
</glyph>
<glyph name="guarani" format="1">
  <advance width="560"/>
  <unicode hex="20B2"/>
  <outline>
    <contour>
      <point x="333" y="790" type="line"/>
      <point x="319" y="712" type="line"/>
      <point x="135" y="688"/>
      <point x="15" y="508"/>
      <point x="15" y="290" type="curve" smooth="yes"/>
      <point x="15" y="135"/>
      <point x="87" y="35"/>
      <point x="195" y="4" type="curve"/>
      <point x="173" y="-120" type="line"/>
      <point x="271" y="-120" type="line"/>
      <point x="291" y="-5" type="line"/>
      <point x="380" y="0"/>
      <point x="447" y="43"/>
      <point x="476" y="68" type="curve"/>
      <point x="511" y="264" type="line"/>
      <point x="516" y="284"/>
      <point x="527" y="289"/>
      <point x="542" y="289" type="curve" smooth="yes"/>
      <point x="546" y="289" type="line"/>
      <point x="559" y="362" type="line"/>
      <point x="390" y="362" type="line"/>
      <point x="377" y="289" type="line" smooth="yes"/>
      <point x="382" y="289"/>
      <point x="385" y="282"/>
      <point x="380" y="253" type="curve"/>
      <point x="352" y="95" type="line"/>
      <point x="343" y="89"/>
      <point x="325" y="78"/>
      <point x="291" y="77" type="curve"/>
      <point x="390" y="631" type="line"/>
      <point x="414" y="628"/>
      <point x="433" y="621"/>
      <point x="448" y="611" type="curve"/>
      <point x="432" y="513" type="line"/>
      <point x="556" y="513" type="line"/>
      <point x="578" y="639" type="line"/>
      <point x="564" y="654"/>
      <point x="509" y="698"/>
      <point x="416" y="711" type="curve"/>
      <point x="430" y="790" type="line"/>
    </contour>
    <contour>
      <point x="185" y="227" type="curve" smooth="yes"/>
      <point x="185" y="270"/>
      <point x="191" y="326"/>
      <point x="202" y="389" type="curve" smooth="yes"/>
      <point x="222" y="509"/>
      <point x="249" y="601"/>
      <point x="320" y="626" type="curve"/>
      <point x="226" y="96" type="line"/>
      <point x="199" y="118"/>
      <point x="185" y="160"/>
    </contour>
  </outline>
</glyph>
<glyph name="uni20B8" format="1">
  <advance width="560"/>
  <unicode hex="20B8"/>
  <outline>
    <contour>
      <point x="82" y="710" type="line"/>
      <point x="67" y="627" type="line"/>
      <point x="598" y="627" type="line"/>
      <point x="613" y="710" type="line"/>
    </contour>
    <contour>
      <point x="145" y="109" type="line" smooth="yes"/>
      <point x="140" y="80"/>
      <point x="118" y="73"/>
      <point x="87" y="73" type="curve" smooth="yes"/>
      <point x="72" y="73" type="line"/>
      <point x="59" y="0" type="line"/>
      <point x="384" y="0" type="line"/>
      <point x="398" y="73" type="line"/>
      <point x="383" y="73" type="line" smooth="yes"/>
      <point x="352" y="73"/>
      <point x="332" y="80"/>
      <point x="337" y="109" type="curve" smooth="yes"/>
      <point x="400" y="468" type="line"/>
      <point x="411" y="468" type="line" smooth="yes"/>
      <point x="446" y="468"/>
      <point x="476" y="461"/>
      <point x="471" y="423" type="curve" smooth="yes"/>
      <point x="459" y="322" type="line"/>
      <point x="544" y="322" type="line"/>
      <point x="585" y="551" type="line"/>
      <point x="54" y="551" type="line"/>
      <point x="13" y="322" type="line"/>
      <point x="97" y="322" type="line"/>
      <point x="123" y="423" type="line" smooth="yes"/>
      <point x="133" y="461"/>
      <point x="161" y="468"/>
      <point x="197" y="468" type="curve" smooth="yes"/>
      <point x="208" y="468" type="line"/>
    </contour>
  </outline>
</glyph>
<glyph name="manat" format="1">
  <advance width="560"/>
  <unicode hex="20BC"/>
  <outline>
    <contour>
      <point x="327" y="720" type="line"/>
      <point x="304" y="588" type="line"/>
      <point x="135" y="564"/>
      <point x="23" y="332"/>
      <point x="-34" y="0" type="curve"/>
      <point x="138" y="0" type="line"/>
      <point x="183" y="342"/>
      <point x="222" y="474"/>
      <point x="290" y="503" type="curve"/>
      <point x="230" y="157" type="line"/>
      <point x="294" y="157" type="line"/>
      <point x="354" y="504" type="line"/>
      <point x="417" y="476"/>
      <point x="404" y="341"/>
      <point x="333" y="0" type="curve"/>
      <point x="505" y="0" type="line"/>
      <point x="560" y="322"/>
      <point x="517" y="555"/>
      <point x="369" y="586" type="curve"/>
      <point x="392" y="720" type="line"/>
    </contour>
  </outline>
</glyph>
<glyph name="servicemark" format="1">
  <advance width="917"/>
  <unicode hex="2120"/>
  <outline>
    <contour>
      <point x="136" y="613" type="curve" smooth="yes"/>
      <point x="136" y="547"/>
      <point x="179" y="527"/>
      <point x="228" y="505" type="curve" smooth="yes"/>
      <point x="275" y="483"/>
      <point x="297" y="475"/>
      <point x="297" y="454" type="curve" smooth="yes"/>
      <point x="297" y="433"/>
      <point x="279" y="418"/>
      <point x="248" y="418" type="curve" smooth="yes"/>
      <point x="203" y="418"/>
      <point x="173" y="446"/>
      <point x="162" y="491" type="curve"/>
      <point x="107" y="491" type="line"/>
      <point x="86" y="372" type="line"/>
      <point x="131" y="372" type="line"/>
      <point x="143" y="416" type="line"/>
      <point x="163" y="386"/>
      <point x="198" y="369"/>
      <point x="255" y="369" type="curve" smooth="yes"/>
      <point x="350" y="369"/>
      <point x="401" y="412"/>
      <point x="401" y="488" type="curve" smooth="yes"/>
      <point x="401" y="541"/>
      <point x="359" y="569"/>
      <point x="291" y="597" type="curve" smooth="yes"/>
      <point x="260" y="610"/>
      <point x="238" y="618"/>
      <point x="238" y="640" type="curve" smooth="yes"/>
      <point x="238" y="658"/>
      <point x="250" y="668"/>
      <point x="275" y="668" type="curve" smooth="yes"/>
      <point x="313" y="668"/>
      <point x="336" y="646"/>
      <point x="347" y="617" type="curve"/>
      <point x="399" y="617" type="line"/>
      <point x="416" y="715" type="line"/>
      <point x="373" y="715" type="line"/>
      <point x="361" y="678" type="line"/>
      <point x="341" y="706"/>
      <point x="307" y="717"/>
      <point x="266" y="717" type="curve" smooth="yes"/>
      <point x="186" y="717"/>
      <point x="136" y="676"/>
    </contour>
    <contour>
      <point x="422" y="376" type="line"/>
      <point x="532" y="376" type="line"/>
      <point x="540" y="420" type="line"/>
      <point x="537" y="420" type="line" smooth="yes"/>
      <point x="527" y="420"/>
      <point x="514" y="422"/>
      <point x="515" y="425" type="curve"/>
      <point x="557" y="666" type="line"/>
      <point x="587" y="375" type="line"/>
      <point x="666" y="375" type="line"/>
      <point x="801" y="666" type="line"/>
      <point x="759" y="425" type="line"/>
      <point x="758" y="421"/>
      <point x="746" y="420"/>
      <point x="735" y="420" type="curve" smooth="yes"/>
      <point x="732" y="420" type="line"/>
      <point x="724" y="376" type="line"/>
      <point x="894" y="376" type="line"/>
      <point x="901" y="420" type="line"/>
      <point x="896" y="420" type="line" smooth="yes"/>
      <point x="882" y="420"/>
      <point x="873" y="424"/>
      <point x="875" y="437" type="curve" smooth="yes"/>
      <point x="913" y="649" type="line" smooth="yes"/>
      <point x="915" y="663"/>
      <point x="926" y="666"/>
      <point x="940" y="666" type="curve" smooth="yes"/>
      <point x="945" y="666" type="line"/>
      <point x="953" y="710" type="line"/>
      <point x="764" y="710" type="line"/>
      <point x="681" y="528" type="line"/>
      <point x="670" y="710" type="line"/>
      <point x="481" y="710" type="line"/>
      <point x="473" y="666" type="line"/>
      <point x="478" y="666" type="line" smooth="yes"/>
      <point x="492" y="666"/>
      <point x="501" y="663"/>
      <point x="499" y="649" type="curve" smooth="yes"/>
      <point x="461" y="437" type="line" smooth="yes"/>
      <point x="459" y="424"/>
      <point x="448" y="420"/>
      <point x="434" y="420" type="curve" smooth="yes"/>
      <point x="429" y="420" type="line"/>
    </contour>
  </outline>
</glyph>
<glyph name="product" format="1">
  <advance width="770"/>
  <unicode hex="220F"/>
  <outline>
    <contour>
      <point x="102" y="710" type="line"/>
      <point x="90" y="637" type="line"/>
      <point x="100" y="637" type="line" smooth="yes"/>
      <point x="131" y="637"/>
      <point x="152" y="630"/>
      <point x="147" y="601" type="curve" smooth="yes"/>
      <point x="20" y="-114" type="line" smooth="yes"/>
      <point x="15" y="-143"/>
      <point x="-8" y="-150"/>
      <point x="-39" y="-150" type="curve" smooth="yes"/>
      <point x="-50" y="-150" type="line"/>
      <point x="-62" y="-223" type="line"/>
      <point x="256" y="-223" type="line"/>
      <point x="268" y="-150" type="line"/>
      <point x="260" y="-150" type="line" smooth="yes"/>
      <point x="240" y="-150"/>
      <point x="215" y="-147"/>
      <point x="216" y="-140" type="curve" smooth="yes"/>
      <point x="351" y="627" type="line" smooth="yes"/>
      <point x="352" y="634"/>
      <point x="383" y="637"/>
      <point x="408" y="637" type="curve" smooth="yes"/>
      <point x="482" y="637" type="line" smooth="yes"/>
      <point x="507" y="637"/>
      <point x="536" y="634"/>
      <point x="535" y="627" type="curve" smooth="yes"/>
      <point x="400" y="-140" type="line" smooth="yes"/>
      <point x="399" y="-147"/>
      <point x="372" y="-150"/>
      <point x="352" y="-150" type="curve" smooth="yes"/>
      <point x="344" y="-150" type="line"/>
      <point x="331" y="-223" type="line"/>
      <point x="649" y="-223" type="line"/>
      <point x="661" y="-150" type="line"/>
      <point x="651" y="-150" type="line" smooth="yes"/>
      <point x="620" y="-150"/>
      <point x="598" y="-143"/>
      <point x="603" y="-114" type="curve" smooth="yes"/>
      <point x="730" y="601" type="line" smooth="yes"/>
      <point x="735" y="630"/>
      <point x="759" y="637"/>
      <point x="790" y="637" type="curve" smooth="yes"/>
      <point x="800" y="637" type="line"/>
      <point x="813" y="710" type="line"/>
    </contour>
  </outline>
</glyph>
<glyph name="uni25B5" format="1">
  <advance width="834"/>
  <unicode hex="25B5"/>
  <outline>
    <contour>
      <point x="20" y="0" type="line"/>
      <point x="814" y="0" type="line"/>
      <point x="417" y="715" type="line"/>
    </contour>
    <contour>
      <point x="132" y="63" type="line"/>
      <point x="417" y="581" type="line"/>
      <point x="702" y="63" type="line"/>
    </contour>
  </outline>
</glyph>
<glyph name="uni25B9" format="1">
  <advance width="573"/>
  <unicode hex="25B9"/>
  <outline>
    <contour>
      <point x="130" y="545" type="line"/>
      <point x="130" y="10" type="line"/>
      <point x="503" y="277" type="line"/>
    </contour>
    <contour>
      <point x="185" y="442" type="line"/>
      <point x="416" y="278" type="line"/>
      <point x="185" y="113" type="line"/>
    </contour>
  </outline>
</glyph>
<glyph name="Euro.proportional" format="1">
  <advance width="717"/>
  <outline>
    <contour>
      <point x="35" y="303" type="line"/>
      <point x="20" y="221" type="line"/>
      <point x="113" y="221" type="line"/>
      <point x="145" y="77"/>
      <point x="259" y="-10"/>
      <point x="402" y="-10" type="curve" smooth="yes"/>
      <point x="551" y="-10"/>
      <point x="632" y="81"/>
      <point x="677" y="212" type="curve"/>
      <point x="604" y="248" type="line"/>
      <point x="571" y="149"/>
      <point x="515" y="79"/>
      <point x="439" y="79" type="curve" smooth="yes"/>
      <point x="369" y="79"/>
      <point x="326" y="123"/>
      <point x="316" y="221" type="curve"/>
      <point x="432" y="221" type="line"/>
      <point x="447" y="303" type="line"/>
      <point x="315" y="303" type="line"/>
      <point x="317" y="329"/>
      <point x="320" y="356"/>
      <point x="325" y="383" type="curve"/>
      <point x="497" y="383" type="line"/>
      <point x="510" y="464" type="line"/>
      <point x="346" y="464" type="line"/>
      <point x="376" y="556"/>
      <point x="427" y="632"/>
      <point x="499" y="632" type="curve" smooth="yes"/>
      <point x="527" y="632"/>
      <point x="548" y="624"/>
      <point x="564" y="612" type="curve"/>
      <point x="547" y="514" type="line"/>
      <point x="696" y="514" type="line"/>
      <point x="719" y="650" type="line"/>
      <point x="695" y="673"/>
      <point x="620" y="720"/>
      <point x="492" y="720" type="curve" smooth="yes"/>
      <point x="308" y="720"/>
      <point x="179" y="617"/>
      <point x="128" y="464" type="curve"/>
      <point x="63" y="464" type="line"/>
      <point x="48" y="383" type="line"/>
      <point x="109" y="383" type="line"/>
      <point x="106" y="358"/>
      <point x="104" y="333"/>
      <point x="104" y="307" type="curve" smooth="yes"/>
      <point x="104" y="303" type="line"/>
    </contour>
  </outline>
</glyph>
<glyph name="bar.uc" format="1">
  <advance width="295"/>
  <outline>
    <contour>
      <point x="82" y="743" type="line"/>
      <point x="82" y="-36" type="line"/>
      <point x="213" y="-36" type="line"/>
      <point x="213" y="743" type="line"/>
    </contour>
  </outline>
</glyph>
<glyph name="breve_grave" format="1">
  <advance width="510"/>
  <outline>
    <contour>
      <point x="259" y="561" type="curve" smooth="yes"/>
      <point x="357" y="561"/>
      <point x="429" y="610"/>
      <point x="441" y="747" type="curve"/>
      <point x="351" y="747" type="line"/>
      <point x="341" y="699"/>
      <point x="320" y="682"/>
      <point x="270" y="682" type="curve" smooth="yes"/>
      <point x="220" y="682"/>
      <point x="201" y="701"/>
      <point x="203" y="747" type="curve"/>
      <point x="107" y="747" type="line"/>
      <point x="105" y="732"/>
      <point x="104" y="718"/>
      <point x="104" y="705" type="curve" smooth="yes"/>
      <point x="103" y="607"/>
      <point x="167" y="561"/>
    </contour>
    <contour>
      <point x="288" y="872" type="line" smooth="yes"/>
      <point x="262" y="941"/>
      <point x="235" y="967"/>
      <point x="185" y="967" type="curve" smooth="yes"/>
      <point x="132" y="967"/>
      <point x="103" y="929"/>
      <point x="103" y="893" type="curve" smooth="yes"/>
      <point x="103" y="852"/>
      <point x="132" y="823"/>
      <point x="181" y="799" type="curve" smooth="yes"/>
      <point x="269" y="746" type="line"/>
      <point x="325" y="746" type="line"/>
      <point x="325" y="775" type="line"/>
    </contour>
    <contour>
      <point x="250" y="515" type="move" name="_top"/>
    </contour>
  </outline>
</glyph>
<glyph name="breve_grave.uc" format="1">
  <advance width="510"/>
  <outline>
    <contour>
      <point x="282" y="930" type="line"/>
      <point x="340" y="930" type="line"/>
      <point x="340" y="956" type="line"/>
      <point x="303" y="1023" type="line" smooth="yes"/>
      <point x="275" y="1074"/>
      <point x="254" y="1101"/>
      <point x="209" y="1101" type="curve" smooth="yes"/>
      <point x="164" y="1101"/>
      <point x="141" y="1071"/>
      <point x="141" y="1037" type="curve" smooth="yes"/>
      <point x="141" y="1002"/>
      <point x="164" y="979"/>
      <point x="216" y="958" type="curve" smooth="yes"/>
    </contour>
    <contour>
      <point x="266" y="749" type="curve" smooth="yes"/>
      <point x="353" y="749"/>
      <point x="422" y="787"/>
      <point x="442" y="912" type="curve"/>
      <point x="350" y="912" type="line"/>
      <point x="341" y="873"/>
      <point x="316" y="859"/>
      <point x="274" y="859" type="curve" smooth="yes"/>
      <point x="230" y="859"/>
      <point x="206" y="871"/>
      <point x="206" y="912" type="curve"/>
      <point x="109" y="912" type="line"/>
      <point x="99" y="803"/>
      <point x="159" y="749"/>
    </contour>
    <contour>
      <point x="236" y="728" type="move" name="_top"/>
    </contour>
  </outline>
</glyph>
<glyph name="breve_hook.uc" format="1">
  <advance width="500"/>
  <outline>
    <contour>
      <point x="146" y="1004" type="curve"/>
      <point x="236" y="1004" type="line"/>
      <point x="241" y="1022"/>
      <point x="252" y="1030"/>
      <point x="269" y="1030" type="curve" smooth="yes"/>
      <point x="288" y="1030"/>
      <point x="297" y="1022"/>
      <point x="297" y="1005" type="curve" smooth="yes"/>
      <point x="297" y="980"/>
      <point x="278" y="963"/>
      <point x="219" y="962" type="curve"/>
      <point x="209" y="906" type="line"/>
      <point x="292" y="906" type="line"/>
      <point x="296" y="931" type="line"/>
      <point x="362" y="939"/>
      <point x="403" y="961"/>
      <point x="403" y="1011" type="curve" smooth="yes"/>
      <point x="403" y="1061"/>
      <point x="358" y="1086"/>
      <point x="279" y="1086" type="curve" smooth="yes"/>
      <point x="200" y="1086"/>
      <point x="155" y="1053"/>
    </contour>
    <contour>
      <point x="245" y="758" type="curve"/>
      <point x="343" y="758"/>
      <point x="402" y="802"/>
      <point x="418" y="898" type="curve"/>
      <point x="326" y="898" type="line"/>
      <point x="317" y="863"/>
      <point x="299" y="847"/>
      <point x="252" y="847" type="curve"/>
      <point x="200" y="847"/>
      <point x="182" y="863"/>
      <point x="182" y="898" type="curve"/>
      <point x="84" y="898" type="line"/>
      <point x="80" y="813"/>
      <point x="126" y="758"/>
    </contour>
    <contour>
      <point x="228" y="724" type="move" name="_top"/>
    </contour>
  </outline>
</glyph>
<glyph name="breve_tilde" format="1">
  <advance width="500"/>
  <outline>
    <contour>
      <point x="218" y="921" type="curve" smooth="yes"/>
      <point x="153" y="921"/>
      <point x="115" y="883"/>
      <point x="89" y="798" type="curve"/>
      <point x="165" y="764" type="line"/>
      <point x="176" y="800"/>
      <point x="189" y="815"/>
      <point x="209" y="815" type="curve" smooth="yes"/>
      <point x="243" y="815"/>
      <point x="271" y="763"/>
      <point x="341" y="763" type="curve" smooth="yes"/>
      <point x="405" y="763"/>
      <point x="447" y="802"/>
      <point x="473" y="889" type="curve"/>
      <point x="398" y="924" type="line"/>
      <point x="385" y="889"/>
      <point x="371" y="873"/>
      <point x="351" y="873" type="curve" smooth="yes"/>
      <point x="310" y="873"/>
      <point x="291" y="921"/>
    </contour>
    <contour>
      <point x="268" y="673" type="curve" smooth="yes"/>
      <point x="214" y="673"/>
      <point x="196" y="695"/>
      <point x="197" y="728" type="curve"/>
      <point x="102" y="728" type="line"/>
      <point x="101" y="723"/>
      <point x="100" y="710"/>
      <point x="100" y="701" type="curve" smooth="yes"/>
      <point x="101" y="619"/>
      <point x="154" y="562"/>
      <point x="260" y="562" type="curve" smooth="yes"/>
      <point x="359" y="562"/>
      <point x="423" y="614"/>
      <point x="436" y="728" type="curve"/>
      <point x="345" y="728" type="line"/>
      <point x="337" y="689"/>
      <point x="313" y="673"/>
    </contour>
    <contour>
      <point x="254" y="524" type="move" name="_top"/>
    </contour>
  </outline>
</glyph>
<glyph name="brevebelow" format="1">
  <advance width="500"/>
  <outline>
    <contour>
      <point x="259" y="-258" type="curve" smooth="yes"/>
      <point x="357" y="-258"/>
      <point x="429" y="-209"/>
      <point x="441" y="-72" type="curve"/>
      <point x="351" y="-72" type="line"/>
      <point x="341" y="-120"/>
      <point x="320" y="-137"/>
      <point x="270" y="-137" type="curve" smooth="yes"/>
      <point x="220" y="-137"/>
      <point x="201" y="-118"/>
      <point x="203" y="-72" type="curve"/>
      <point x="107" y="-72" type="line"/>
      <point x="105" y="-87"/>
      <point x="104" y="-101"/>
      <point x="104" y="-114" type="curve" smooth="yes"/>
      <point x="103" y="-212"/>
      <point x="167" y="-258"/>
    </contour>
    <contour>
      <point x="250" y="-46" type="move" name="_bottom"/>
    </contour>
  </outline>
</glyph>
<glyph name="caron.alt" format="1">
  <advance width="500"/>
  <outline>
    <contour>
      <point x="176" y="528" type="line"/>
      <point x="283" y="710" type="line"/>
      <point x="135" y="710" type="line"/>
      <point x="89" y="538" type="line"/>
      <point x="87" y="528" type="line"/>
    </contour>
    <contour>
      <point x="85" y="574" type="move" name="_right"/>
    </contour>
  </outline>
</glyph>
<glyph name="cent.alt" format="1">
  <advance width="560"/>
  <outline>
    <contour>
      <point x="22" y="232" type="curve" smooth="yes"/>
      <point x="22" y="100"/>
      <point x="107" y="18"/>
      <point x="217" y="-6" type="curve"/>
      <point x="196" y="-126" type="line"/>
      <point x="286" y="-126" type="line"/>
      <point x="305" y="-14" type="line"/>
      <point x="402" y="-8"/>
      <point x="470" y="41"/>
      <point x="512" y="133" type="curve"/>
      <point x="451" y="181" type="line"/>
      <point x="424" y="127"/>
      <point x="387" y="74"/>
      <point x="323" y="74" type="curve" smooth="yes"/>
      <point x="264" y="74"/>
      <point x="231" y="118"/>
      <point x="231" y="207" type="curve" smooth="yes"/>
      <point x="231" y="309"/>
      <point x="268" y="438"/>
      <point x="348" y="438" type="curve" smooth="yes"/>
      <point x="367" y="438"/>
      <point x="383" y="433"/>
      <point x="395" y="424" type="curve"/>
      <point x="377" y="326" type="line"/>
      <point x="525" y="326" type="line"/>
      <point x="548" y="452" type="line"/>
      <point x="530" y="471"/>
      <point x="481" y="505"/>
      <point x="399" y="518" type="curve"/>
      <point x="418" y="623" type="line"/>
      <point x="328" y="623" type="line"/>
      <point x="310" y="522" type="line"/>
      <point x="132" y="513"/>
      <point x="22" y="392"/>
    </contour>
  </outline>
</glyph>
<glyph name="cent.altprop" format="1">
  <advance width="560"/>
  <outline>
    <contour>
      <point x="339" y="488" type="curve" smooth="yes"/>
      <point x="393" y="488"/>
      <point x="432" y="474"/>
      <point x="457" y="455" type="curve"/>
      <point x="444" y="381" type="line"/>
      <point x="492" y="381" type="line"/>
      <point x="506" y="460" type="line"/>
      <point x="497" y="471"/>
      <point x="449" y="512"/>
      <point x="358" y="517" type="curve"/>
      <point x="376" y="623" type="line"/>
      <point x="340" y="623" type="line"/>
      <point x="321" y="517" type="line"/>
      <point x="159" y="508"/>
      <point x="62" y="375"/>
      <point x="62" y="216" type="curve" smooth="yes"/>
      <point x="62" y="97"/>
      <point x="123" y="12"/>
      <point x="229" y="-8" type="curve"/>
      <point x="208" y="-126" type="line"/>
      <point x="244" y="-126" type="line"/>
      <point x="264" y="-12" type="line"/>
      <point x="269" y="-12"/>
      <point x="273" y="-12"/>
      <point x="278" y="-12" type="curve" smooth="yes"/>
      <point x="377" y="-12"/>
      <point x="440" y="49"/>
      <point x="476" y="123" type="curve"/>
      <point x="450" y="142" type="line"/>
      <point x="422" y="81"/>
      <point x="371" y="18"/>
      <point x="278" y="18" type="curve" smooth="yes"/>
      <point x="162" y="18"/>
      <point x="105" y="97"/>
      <point x="105" y="216" type="curve" smooth="yes"/>
      <point x="105" y="363"/>
      <point x="189" y="488"/>
    </contour>
  </outline>
</glyph>
<glyph name="circumflex_grave.uc" format="1">
  <advance width="510"/>
  <outline>
    <contour>
      <point x="542" y="966" type="line" smooth="yes"/>
      <point x="523" y="1022"/>
      <point x="495" y="1043"/>
      <point x="455" y="1043" type="curve" smooth="yes"/>
      <point x="413" y="1043"/>
      <point x="386" y="1016"/>
      <point x="386" y="978" type="curve" smooth="yes"/>
      <point x="386" y="941"/>
      <point x="412" y="920"/>
      <point x="457" y="896" type="curve" smooth="yes"/>
      <point x="517" y="864" type="line"/>
      <point x="570" y="864" type="line"/>
      <point x="570" y="890" type="line"/>
    </contour>
    <contour>
      <point x="370" y="912" type="line"/>
      <point x="215" y="912" type="line"/>
      <point x="80" y="773" type="line"/>
      <point x="75" y="751" type="line"/>
      <point x="172" y="751" type="line"/>
      <point x="274" y="810" type="line"/>
      <point x="352" y="751" type="line"/>
      <point x="453" y="751" type="line"/>
      <point x="458" y="773" type="line"/>
    </contour>
    <contour>
      <point x="241" y="696" type="move" name="_top"/>
    </contour>
  </outline>
</glyph>
<glyph name="circumflex_hook" format="1">
  <advance width="510"/>
  <outline>
    <contour>
      <point x="354" y="805" type="curve"/>
      <point x="446" y="805" type="line"/>
      <point x="451" y="824"/>
      <point x="460" y="831"/>
      <point x="479" y="831" type="curve" smooth="yes"/>
      <point x="499" y="831"/>
      <point x="507" y="822"/>
      <point x="507" y="807" type="curve" smooth="yes"/>
      <point x="507" y="781"/>
      <point x="489" y="765"/>
      <point x="427" y="764" type="curve"/>
      <point x="417" y="701" type="line"/>
      <point x="502" y="701" type="line"/>
      <point x="507" y="729" type="line"/>
      <point x="576" y="735"/>
      <point x="613" y="762"/>
      <point x="613" y="811" type="curve" smooth="yes"/>
      <point x="613" y="858"/>
      <point x="573" y="889"/>
      <point x="490" y="889" type="curve" smooth="yes"/>
      <point x="408" y="889"/>
      <point x="363" y="854"/>
    </contour>
    <contour>
      <point x="366" y="733" type="line"/>
      <point x="215" y="733" type="line"/>
      <point x="71" y="583" type="line"/>
      <point x="67" y="560" type="line"/>
      <point x="147" y="560" type="line"/>
      <point x="276" y="631" type="line"/>
      <point x="367" y="560" type="line"/>
      <point x="452" y="560" type="line"/>
      <point x="456" y="583" type="line"/>
    </contour>
    <contour>
      <point x="245" y="559" type="move" name="_top"/>
    </contour>
  </outline>
</glyph>
<glyph name="circumflex_tilde.uc" format="1">
  <advance width="500"/>
  <outline>
    <contour>
      <point x="220" y="966" type="curve" smooth="yes"/>
      <point x="252" y="966"/>
      <point x="270" y="920"/>
      <point x="348" y="920" type="curve" smooth="yes"/>
      <point x="407" y="920"/>
      <point x="447" y="954"/>
      <point x="475" y="1038" type="curve"/>
      <point x="399" y="1073" type="line"/>
      <point x="386" y="1040"/>
      <point x="376" y="1027"/>
      <point x="355" y="1027" type="curve" smooth="yes"/>
      <point x="319" y="1027"/>
      <point x="301" y="1072"/>
      <point x="231" y="1072" type="curve" smooth="yes"/>
      <point x="167" y="1072"/>
      <point x="131" y="1035"/>
      <point x="104" y="953" type="curve"/>
      <point x="179" y="919" type="line"/>
      <point x="190" y="950"/>
      <point x="201" y="966"/>
    </contour>
    <contour>
      <point x="360" y="889" type="line"/>
      <point x="205" y="889" type="line"/>
      <point x="75" y="775" type="line"/>
      <point x="71" y="749" type="line"/>
      <point x="162" y="749" type="line"/>
      <point x="266" y="796" type="line"/>
      <point x="347" y="749" type="line"/>
      <point x="443" y="749" type="line"/>
      <point x="447" y="775" type="line"/>
    </contour>
    <contour>
      <point x="236" y="694" type="move" name="_top"/>
    </contour>
  </outline>
</glyph>
<glyph name="dieresisbelow" format="1">
  <advance width="500"/>
  <outline>
    <contour>
      <point x="138" y="-241" type="curve" smooth="yes"/>
      <point x="77" y="-241"/>
      <point x="41" y="-209"/>
      <point x="41" y="-158" type="curve" smooth="yes"/>
      <point x="41" y="-101"/>
      <point x="80" y="-65"/>
      <point x="147" y="-65" type="curve" smooth="yes"/>
      <point x="208" y="-65"/>
      <point x="244" y="-97"/>
      <point x="244" y="-149" type="curve" smooth="yes"/>
      <point x="244" y="-205"/>
      <point x="204" y="-241"/>
    </contour>
    <contour>
      <point x="384" y="-241" type="curve" smooth="yes"/>
      <point x="323" y="-241"/>
      <point x="287" y="-209"/>
      <point x="287" y="-158" type="curve" smooth="yes"/>
      <point x="287" y="-101"/>
      <point x="327" y="-65"/>
      <point x="393" y="-65" type="curve" smooth="yes"/>
      <point x="455" y="-65"/>
      <point x="490" y="-97"/>
      <point x="490" y="-149" type="curve" smooth="yes"/>
      <point x="490" y="-205"/>
      <point x="451" y="-241"/>
    </contour>
    <contour>
      <point x="255" y="-58" type="move" name="_bottom"/>
    </contour>
  </outline>
</glyph>
<glyph name="dollar.alt" format="1">
  <advance width="560"/>
  <outline>
    <contour>
      <point x="65" y="494" type="curve" smooth="yes"/>
      <point x="65" y="392"/>
      <point x="129" y="340"/>
      <point x="202" y="297" type="curve" smooth="yes"/>
      <point x="273" y="255"/>
      <point x="334" y="233"/>
      <point x="334" y="180" type="curve" smooth="yes"/>
      <point x="334" y="131"/>
      <point x="299" y="103"/>
      <point x="243" y="103" type="curve" smooth="yes"/>
      <point x="204" y="103"/>
      <point x="170" y="113"/>
      <point x="145" y="132" type="curve"/>
      <point x="158" y="211" type="line"/>
      <point x="10" y="211" type="line"/>
      <point x="-9" y="105" type="line"/>
      <point x="21" y="73"/>
      <point x="86" y="32"/>
      <point x="183" y="17" type="curve"/>
      <point x="160" y="-120" type="line"/>
      <point x="250" y="-120" type="line"/>
      <point x="273" y="12" type="line"/>
      <point x="424" y="17"/>
      <point x="521" y="100"/>
      <point x="521" y="240" type="curve" smooth="yes"/>
      <point x="521" y="335"/>
      <point x="452" y="391"/>
      <point x="358" y="442" type="curve" smooth="yes"/>
      <point x="303" y="472"/>
      <point x="245" y="498"/>
      <point x="245" y="548" type="curve" smooth="yes"/>
      <point x="245" y="588"/>
      <point x="271" y="612"/>
      <point x="323" y="612" type="curve" smooth="yes"/>
      <point x="355" y="612"/>
      <point x="380" y="604"/>
      <point x="399" y="589" type="curve"/>
      <point x="387" y="519" type="line"/>
      <point x="530" y="519" type="line"/>
      <point x="548" y="623" type="line"/>
      <point x="526" y="650"/>
      <point x="476" y="682"/>
      <point x="392" y="693" type="curve"/>
      <point x="410" y="790" type="line"/>
      <point x="320" y="790" type="line"/>
      <point x="303" y="698" type="line"/>
      <point x="165" y="692"/>
      <point x="65" y="627"/>
    </contour>
  </outline>
</glyph>
<glyph name="dotbelow" format="1">
  <advance width="500"/>
  <outline>
    <contour>
      <point x="252" y="-258" type="curve" smooth="yes"/>
      <point x="325" y="-258"/>
      <point x="369" y="-222"/>
      <point x="369" y="-166" type="curve" smooth="yes"/>
      <point x="369" y="-114"/>
      <point x="330" y="-82"/>
      <point x="261" y="-82" type="curve" smooth="yes"/>
      <point x="189" y="-82"/>
      <point x="145" y="-118"/>
      <point x="145" y="-175" type="curve" smooth="yes"/>
      <point x="145" y="-226"/>
      <point x="183" y="-258"/>
    </contour>
    <contour>
      <point x="273" y="-35" type="move" name="_bottom"/>
    </contour>
  </outline>
</glyph>
<glyph name="f.alt5" format="1">
  <advance width="456"/>
  <outline>
    <contour>
      <point x="176" y="-223" type="line"/>
      <point x="315" y="435" type="line"/>
      <point x="466" y="435" type="line"/>
      <point x="480" y="513" type="line"/>
      <point x="331" y="513" type="line"/>
      <point x="342" y="563" type="line" smooth="yes"/>
      <point x="358" y="638"/>
      <point x="384" y="665"/>
      <point x="441" y="665" type="curve" smooth="yes"/>
      <point x="476" y="665"/>
      <point x="512" y="651"/>
      <point x="525" y="646" type="curve"/>
      <point x="540" y="727" type="line"/>
      <point x="523" y="735"/>
      <point x="482" y="748"/>
      <point x="412" y="748" type="curve" smooth="yes"/>
      <point x="266" y="748"/>
      <point x="158" y="693"/>
      <point x="133" y="517" type="curve" smooth="yes"/>
      <point x="132" y="513" type="line"/>
      <point x="42" y="513" type="line"/>
      <point x="30" y="435" type="line"/>
      <point x="121" y="435" type="line"/>
      <point x="27" y="-223" type="line"/>
    </contour>
  </outline>
</glyph>
<glyph name="f.alt6" format="1">
  <advance width="443"/>
  <outline>
    <contour>
      <point x="-59" y="-234" type="line"/>
      <point x="138" y="-159"/>
      <point x="259" y="-19"/>
      <point x="312" y="424" type="curve" smooth="yes"/>
      <point x="313" y="435" type="line"/>
      <point x="452" y="435" type="line"/>
      <point x="466" y="513" type="line"/>
      <point x="322" y="513" type="line"/>
      <point x="328" y="562" type="line" smooth="yes"/>
      <point x="337" y="638"/>
      <point x="376" y="665"/>
      <point x="428" y="665" type="curve" smooth="yes"/>
      <point x="467" y="665"/>
      <point x="503" y="651"/>
      <point x="516" y="646" type="curve"/>
      <point x="531" y="727" type="line"/>
      <point x="513" y="735"/>
      <point x="468" y="748"/>
      <point x="389" y="748" type="curve" smooth="yes"/>
      <point x="261" y="748"/>
      <point x="143" y="699"/>
      <point x="129" y="555" type="curve" smooth="yes"/>
      <point x="125" y="513" type="line"/>
      <point x="34" y="513" type="line"/>
      <point x="21" y="435" type="line"/>
      <point x="117" y="435" type="line"/>
      <point x="109" y="357" type="line" smooth="yes"/>
      <point x="72" y="-19"/>
      <point x="-9" y="-82"/>
      <point x="-113" y="-144" type="curve"/>
    </contour>
  </outline>
</glyph>
<glyph name="f_b" format="1">
  <advance width="1038"/>
  <outline>
    <contour>
      <point x="193" y="-223" type="line"/>
      <point x="324" y="435" type="line"/>
      <point x="416" y="435" type="line"/>
      <point x="430" y="513" type="line"/>
      <point x="340" y="513" type="line"/>
      <point x="350" y="563" type="line" smooth="yes"/>
      <point x="365" y="638"/>
      <point x="392" y="665"/>
      <point x="439" y="665" type="curve" smooth="yes"/>
      <point x="466" y="665"/>
      <point x="488" y="657"/>
      <point x="505" y="642" type="curve"/>
      <point x="406" y="69" type="line"/>
      <point x="457" y="27"/>
      <point x="550" y="-14"/>
      <point x="685" y="-14" type="curve" smooth="yes"/>
      <point x="890" y="-14"/>
      <point x="1012" y="142"/>
      <point x="1012" y="315" type="curve" smooth="yes"/>
      <point x="1012" y="446"/>
      <point x="938" y="523"/>
      <point x="839" y="523" type="curve" smooth="yes"/>
      <point x="770" y="523"/>
      <point x="720" y="490"/>
      <point x="676" y="434" type="curve"/>
      <point x="727" y="735" type="line"/>
      <point x="540" y="735" type="line"/>
      <point x="506" y="743"/>
      <point x="469" y="748"/>
      <point x="429" y="748" type="curve" smooth="yes"/>
      <point x="274" y="748"/>
      <point x="159" y="693"/>
      <point x="137" y="517" type="curve" smooth="yes"/>
      <point x="136" y="513" type="line"/>
      <point x="46" y="513" type="line"/>
      <point x="33" y="435" type="line"/>
      <point x="127" y="435" type="line"/>
      <point x="44" y="-223" type="line"/>
    </contour>
    <contour>
      <point x="748" y="419" type="curve" smooth="yes"/>
      <point x="784" y="419"/>
      <point x="801" y="392"/>
      <point x="801" y="329" type="curve" smooth="yes"/>
      <point x="801" y="225"/>
      <point x="757" y="65"/>
      <point x="667" y="65" type="curve" smooth="yes"/>
      <point x="645" y="65"/>
      <point x="628" y="72"/>
      <point x="616" y="83" type="curve"/>
      <point x="663" y="357" type="line"/>
      <point x="691" y="397"/>
      <point x="718" y="419"/>
    </contour>
  </outline>
</glyph>
<glyph name="f_f_b" format="1">
  <advance width="1376"/>
  <outline>
    <contour>
      <point x="193" y="-223" type="line"/>
      <point x="325" y="435" type="line"/>
      <point x="465" y="435" type="line"/>
      <point x="386" y="-193" type="line"/>
      <point x="535" y="-193" type="line"/>
      <point x="662" y="435" type="line"/>
      <point x="754" y="435" type="line"/>
      <point x="768" y="513" type="line"/>
      <point x="678" y="513" type="line"/>
      <point x="688" y="563" type="line" smooth="yes"/>
      <point x="703" y="638"/>
      <point x="730" y="665"/>
      <point x="777" y="665" type="curve" smooth="yes"/>
      <point x="804" y="665"/>
      <point x="826" y="657"/>
      <point x="843" y="642" type="curve"/>
      <point x="744" y="69" type="line"/>
      <point x="795" y="27"/>
      <point x="888" y="-14"/>
      <point x="1023" y="-14" type="curve" smooth="yes"/>
      <point x="1228" y="-14"/>
      <point x="1350" y="142"/>
      <point x="1350" y="315" type="curve" smooth="yes"/>
      <point x="1350" y="446"/>
      <point x="1276" y="523"/>
      <point x="1177" y="523" type="curve" smooth="yes"/>
      <point x="1108" y="523"/>
      <point x="1058" y="490"/>
      <point x="1014" y="434" type="curve"/>
      <point x="1065" y="735" type="line"/>
      <point x="878" y="735" type="line"/>
      <point x="844" y="743"/>
      <point x="807" y="748"/>
      <point x="767" y="748" type="curve" smooth="yes"/>
      <point x="612" y="748"/>
      <point x="496" y="693"/>
      <point x="475" y="517" type="curve" smooth="yes"/>
      <point x="474" y="513" type="line"/>
      <point x="340" y="513" type="line"/>
      <point x="353" y="576" type="line" smooth="yes"/>
      <point x="363" y="629"/>
      <point x="383" y="651"/>
      <point x="419" y="651" type="curve" smooth="yes"/>
      <point x="438" y="651"/>
      <point x="453" y="645"/>
      <point x="463" y="642" type="curve"/>
      <point x="477" y="717" type="line"/>
      <point x="464" y="723"/>
      <point x="426" y="734"/>
      <point x="373" y="734" type="curve" smooth="yes"/>
      <point x="238" y="734"/>
      <point x="156" y="672"/>
      <point x="138" y="531" type="curve" smooth="yes"/>
      <point x="136" y="513" type="line"/>
      <point x="46" y="513" type="line"/>
      <point x="33" y="435" type="line"/>
      <point x="126" y="435" type="line"/>
      <point x="44" y="-223" type="line"/>
    </contour>
    <contour>
      <point x="1086" y="419" type="curve" smooth="yes"/>
      <point x="1122" y="419"/>
      <point x="1139" y="392"/>
      <point x="1139" y="329" type="curve" smooth="yes"/>
      <point x="1139" y="225"/>
      <point x="1095" y="65"/>
      <point x="1005" y="65" type="curve" smooth="yes"/>
      <point x="983" y="65"/>
      <point x="966" y="72"/>
      <point x="954" y="83" type="curve"/>
      <point x="1001" y="357" type="line"/>
      <point x="1029" y="397"/>
      <point x="1056" y="419"/>
    </contour>
  </outline>
</glyph>
<glyph name="f_f_j" format="1">
  <advance width="1039"/>
  <outline>
    <contour>
      <point x="927" y="573" type="curve" smooth="yes"/>
      <point x="999" y="573"/>
      <point x="1043" y="609"/>
      <point x="1043" y="666" type="curve" smooth="yes"/>
      <point x="1043" y="717"/>
      <point x="1005" y="749"/>
      <point x="936" y="749" type="curve" smooth="yes"/>
      <point x="863" y="749"/>
      <point x="819" y="713"/>
      <point x="819" y="657" type="curve" smooth="yes"/>
      <point x="819" y="605"/>
      <point x="858" y="573"/>
    </contour>
    <contour>
      <point x="193" y="-223" type="line"/>
      <point x="325" y="435" type="line"/>
      <point x="465" y="435" type="line"/>
      <point x="385" y="-193" type="line"/>
      <point x="535" y="-193" type="line"/>
      <point x="663" y="435" type="line"/>
      <point x="763" y="435" type="line" smooth="yes"/>
      <point x="794" y="435"/>
      <point x="806" y="425"/>
      <point x="802" y="404" type="curve" smooth="yes"/>
      <point x="730" y="-4" type="line" smooth="yes"/>
      <point x="711" y="-113"/>
      <point x="691" y="-147"/>
      <point x="649" y="-147" type="curve" smooth="yes"/>
      <point x="632" y="-147"/>
      <point x="613" y="-140"/>
      <point x="610" y="-139" type="curve"/>
      <point x="591" y="-219" type="line"/>
      <point x="609" y="-228"/>
      <point x="650" y="-236"/>
      <point x="689" y="-236" type="curve" smooth="yes"/>
      <point x="830" y="-236"/>
      <point x="908" y="-179"/>
      <point x="939" y="4" type="curve" smooth="yes"/>
      <point x="1026" y="513" type="line"/>
      <point x="679" y="513" type="line"/>
      <point x="693" y="584" type="line" smooth="yes"/>
      <point x="704" y="639"/>
      <point x="718" y="654"/>
      <point x="748" y="654" type="curve" smooth="yes"/>
      <point x="760" y="654"/>
      <point x="768" y="652"/>
      <point x="775" y="650" type="curve"/>
      <point x="789" y="727" type="line"/>
      <point x="772" y="732"/>
      <point x="745" y="737"/>
      <point x="703" y="737" type="curve" smooth="yes"/>
      <point x="578" y="737"/>
      <point x="495" y="676"/>
      <point x="478" y="540" type="curve" smooth="yes"/>
      <point x="475" y="513" type="line"/>
      <point x="340" y="513" type="line"/>
      <point x="353" y="576" type="line" smooth="yes"/>
      <point x="363" y="629"/>
      <point x="383" y="651"/>
      <point x="419" y="651" type="curve" smooth="yes"/>
      <point x="438" y="651"/>
      <point x="453" y="645"/>
      <point x="463" y="642" type="curve"/>
      <point x="477" y="717" type="line"/>
      <point x="464" y="723"/>
      <point x="426" y="734"/>
      <point x="373" y="734" type="curve" smooth="yes"/>
      <point x="238" y="734"/>
      <point x="156" y="672"/>
      <point x="138" y="531" type="curve" smooth="yes"/>
      <point x="136" y="513" type="line"/>
      <point x="46" y="513" type="line"/>
      <point x="33" y="435" type="line"/>
      <point x="126" y="435" type="line"/>
      <point x="44" y="-223" type="line"/>
    </contour>
  </outline>
</glyph>
<glyph name="f_h" format="1">
  <advance width="1036"/>
  <outline>
    <contour>
      <point x="193" y="-223" type="line"/>
      <point x="324" y="435" type="line"/>
      <point x="416" y="435" type="line"/>
      <point x="430" y="513" type="line"/>
      <point x="340" y="513" type="line"/>
      <point x="350" y="563" type="line" smooth="yes"/>
      <point x="365" y="638"/>
      <point x="392" y="665"/>
      <point x="439" y="665" type="curve" smooth="yes"/>
      <point x="467" y="665"/>
      <point x="489" y="657"/>
      <point x="506" y="641" type="curve"/>
      <point x="391" y="0" type="line"/>
      <point x="597" y="0" type="line"/>
      <point x="658" y="342" type="line"/>
      <point x="690" y="386"/>
      <point x="724" y="413"/>
      <point x="753" y="413" type="curve" smooth="yes"/>
      <point x="777" y="413"/>
      <point x="786" y="399"/>
      <point x="786" y="377" type="curve" smooth="yes"/>
      <point x="786" y="360"/>
      <point x="782" y="341"/>
      <point x="776" y="311" type="curve" smooth="yes"/>
      <point x="759" y="228" type="line" smooth="yes"/>
      <point x="747" y="169"/>
      <point x="744" y="137"/>
      <point x="744" y="110" type="curve" smooth="yes"/>
      <point x="744" y="28"/>
      <point x="798" y="-11"/>
      <point x="878" y="-11" type="curve" smooth="yes"/>
      <point x="931" y="-11"/>
      <point x="976" y="5"/>
      <point x="1000" y="20" type="curve"/>
      <point x="1013" y="94" type="line"/>
      <point x="1008" y="93"/>
      <point x="990" y="85"/>
      <point x="971" y="85" type="curve" smooth="yes"/>
      <point x="954" y="85"/>
      <point x="945" y="91"/>
      <point x="945" y="109" type="curve" smooth="yes"/>
      <point x="945" y="126"/>
      <point x="952" y="157"/>
      <point x="961" y="201" type="curve" smooth="yes"/>
      <point x="979" y="292" type="line" smooth="yes"/>
      <point x="989" y="344"/>
      <point x="994" y="376"/>
      <point x="994" y="403" type="curve" smooth="yes"/>
      <point x="994" y="475"/>
      <point x="946" y="523"/>
      <point x="859" y="523" type="curve" smooth="yes"/>
      <point x="780" y="523"/>
      <point x="723" y="485"/>
      <point x="673" y="424" type="curve"/>
      <point x="729" y="735" type="line"/>
      <point x="540" y="735" type="line"/>
      <point x="506" y="743"/>
      <point x="469" y="748"/>
      <point x="429" y="748" type="curve" smooth="yes"/>
      <point x="274" y="748"/>
      <point x="159" y="693"/>
      <point x="137" y="517" type="curve" smooth="yes"/>
      <point x="136" y="513" type="line"/>
      <point x="46" y="513" type="line"/>
      <point x="33" y="435" type="line"/>
      <point x="127" y="435" type="line"/>
      <point x="44" y="-223" type="line"/>
    </contour>
  </outline>
</glyph>
<glyph name="f_i" format="1">
  <advance width="712"/>
  <outline>
    <contour>
      <point x="591" y="573" type="curve" smooth="yes"/>
      <point x="663" y="573"/>
      <point x="707" y="609"/>
      <point x="707" y="666" type="curve" smooth="yes"/>
      <point x="707" y="717"/>
      <point x="668" y="749"/>
      <point x="600" y="749" type="curve" smooth="yes"/>
      <point x="527" y="749"/>
      <point x="483" y="713"/>
      <point x="483" y="657" type="curve" smooth="yes"/>
      <point x="483" y="605"/>
      <point x="522" y="573"/>
    </contour>
    <contour>
      <point x="193" y="-223" type="line"/>
      <point x="325" y="435" type="line"/>
      <point x="425" y="435" type="line" smooth="yes"/>
      <point x="456" y="435"/>
      <point x="468" y="425"/>
      <point x="464" y="403" type="curve" smooth="yes"/>
      <point x="431" y="228" type="line" smooth="yes"/>
      <point x="421" y="169"/>
      <point x="415" y="139"/>
      <point x="415" y="111" type="curve" smooth="yes"/>
      <point x="415" y="30"/>
      <point x="473" y="-11"/>
      <point x="553" y="-11" type="curve" smooth="yes"/>
      <point x="607" y="-11"/>
      <point x="654" y="6"/>
      <point x="675" y="18" type="curve"/>
      <point x="688" y="94" type="line"/>
      <point x="683" y="93"/>
      <point x="664" y="85"/>
      <point x="646" y="85" type="curve" smooth="yes"/>
      <point x="627" y="85"/>
      <point x="618" y="91"/>
      <point x="618" y="109" type="curve" smooth="yes"/>
      <point x="618" y="126"/>
      <point x="624" y="157"/>
      <point x="632" y="201" type="curve" smooth="yes"/>
      <point x="688" y="513" type="line"/>
      <point x="341" y="513" type="line"/>
      <point x="355" y="584" type="line" smooth="yes"/>
      <point x="365" y="639"/>
      <point x="380" y="654"/>
      <point x="410" y="654" type="curve" smooth="yes"/>
      <point x="422" y="654"/>
      <point x="430" y="652"/>
      <point x="437" y="650" type="curve"/>
      <point x="451" y="727" type="line"/>
      <point x="434" y="732"/>
      <point x="407" y="737"/>
      <point x="365" y="737" type="curve" smooth="yes"/>
      <point x="240" y="737"/>
      <point x="157" y="676"/>
      <point x="140" y="540" type="curve" smooth="yes"/>
      <point x="137" y="513" type="line"/>
      <point x="46" y="513" type="line"/>
      <point x="33" y="435" type="line"/>
      <point x="127" y="435" type="line"/>
      <point x="44" y="-223" type="line"/>
    </contour>
  </outline>
</glyph>
<glyph name="five.sub" format="1">
  <advance width="349"/>
  <outline>
    <contour>
      <point x="133" y="-109" type="curve" smooth="yes"/>
      <point x="235" y="-109"/>
      <point x="302" y="-59"/>
      <point x="302" y="29" type="curve" smooth="yes"/>
      <point x="302" y="93"/>
      <point x="255" y="133"/>
      <point x="183" y="133" type="curve" smooth="yes"/>
      <point x="143" y="133"/>
      <point x="115" y="122"/>
      <point x="94" y="101" type="curve"/>
      <point x="107" y="173" type="line"/>
      <point x="287" y="173" type="line"/>
      <point x="312" y="269" type="line"/>
      <point x="62" y="269" type="line"/>
      <point x="23" y="47" type="line"/>
      <point x="80" y="47" type="line"/>
      <point x="90" y="66"/>
      <point x="105" y="78"/>
      <point x="128" y="78" type="curve" smooth="yes"/>
      <point x="157" y="78"/>
      <point x="169" y="58"/>
      <point x="169" y="31" type="curve" smooth="yes"/>
      <point x="169" y="-6"/>
      <point x="155" y="-48"/>
      <point x="109" y="-48" type="curve" smooth="yes"/>
      <point x="67" y="-48"/>
      <point x="49" y="-18"/>
      <point x="39" y="4" type="curve"/>
      <point x="-22" y="-25" type="line"/>
      <point x="-5" y="-72"/>
      <point x="38" y="-109"/>
    </contour>
  </outline>
</glyph>
<glyph name="four.sub" format="1">
  <advance width="359"/>
  <outline>
    <contour>
      <point x="-29" y="-13" type="line"/>
      <point x="126" y="-13" type="line"/>
      <point x="111" y="-100" type="line"/>
      <point x="245" y="-100" type="line"/>
      <point x="260" y="-13" type="line"/>
      <point x="304" y="-13" type="line"/>
      <point x="319" y="76" type="line"/>
      <point x="276" y="76" type="line"/>
      <point x="310" y="269" type="line"/>
      <point x="161" y="269" type="line"/>
      <point x="-13" y="80" type="line"/>
    </contour>
    <contour>
      <point x="55" y="76" type="line"/>
      <point x="162" y="195" type="line"/>
      <point x="142" y="76" type="line"/>
    </contour>
  </outline>
</glyph>
<glyph name="guarani.proportional" format="1">
  <advance width="803"/>
  <outline>
    <contour>
      <point x="399" y="-5" type="curve" smooth="yes"/>
      <point x="525" y="-5"/>
      <point x="634" y="47"/>
      <point x="681" y="92" type="curve"/>
      <point x="712" y="260" type="line"/>
      <point x="719" y="283"/>
      <point x="737" y="289"/>
      <point x="759" y="289" type="curve" smooth="yes"/>
      <point x="766" y="289" type="line"/>
      <point x="779" y="362" type="line"/>
      <point x="537" y="362" type="line"/>
      <point x="523" y="289" type="line"/>
      <point x="524" y="289" type="line" smooth="yes"/>
      <point x="534" y="289"/>
      <point x="541" y="282"/>
      <point x="538" y="256" type="curve"/>
      <point x="512" y="112" type="line"/>
      <point x="490" y="97"/>
      <point x="454" y="83"/>
      <point x="406" y="83" type="curve" smooth="yes"/>
      <point x="402" y="83" type="line"/>
      <point x="497" y="626" type="line"/>
      <point x="541" y="621"/>
      <point x="575" y="607"/>
      <point x="600" y="590" type="curve"/>
      <point x="585" y="495" type="line"/>
      <point x="745" y="495" type="line"/>
      <point x="765" y="616" type="line"/>
      <point x="745" y="639"/>
      <point x="657" y="698"/>
      <point x="522" y="712" type="curve"/>
      <point x="536" y="790" type="line"/>
      <point x="446" y="790" type="line"/>
      <point x="433" y="714" type="line"/>
      <point x="194" y="701"/>
      <point x="44" y="537"/>
      <point x="44" y="320" type="curve" smooth="yes"/>
      <point x="44" y="146"/>
      <point x="154" y="35"/>
      <point x="307" y="4" type="curve"/>
      <point x="286" y="-120" type="line"/>
      <point x="376" y="-120" type="line"/>
      <point x="396" y="-5" type="line"/>
      <point x="397" y="-5"/>
      <point x="398" y="-5"/>
    </contour>
    <contour>
      <point x="245" y="289" type="curve" smooth="yes"/>
      <point x="245" y="431"/>
      <point x="295" y="593"/>
      <point x="426" y="622" type="curve"/>
      <point x="333" y="98" type="line"/>
      <point x="278" y="126"/>
      <point x="245" y="189"/>
    </contour>
  </outline>
</glyph>
<glyph name="kip.proportional" format="1">
  <advance width="765"/>
  <outline>
    <contour>
      <point x="-20" y="0" type="line"/>
      <point x="305" y="0" type="line"/>
      <point x="318" y="73" type="line"/>
      <point x="310" y="73" type="line" smooth="yes"/>
      <point x="288" y="73"/>
      <point x="264" y="76"/>
      <point x="265" y="83" type="curve" smooth="yes"/>
      <point x="308" y="326" type="line"/>
      <point x="354" y="326" type="line"/>
      <point x="434" y="83" type="line"/>
      <point x="432" y="76"/>
      <point x="410" y="73"/>
      <point x="389" y="73" type="curve" smooth="yes"/>
      <point x="380" y="73" type="line"/>
      <point x="366" y="0" type="line"/>
      <point x="705" y="0" type="line"/>
      <point x="718" y="73" type="line"/>
      <point x="705" y="73" type="line" smooth="yes"/>
      <point x="679" y="73"/>
      <point x="666" y="81"/>
      <point x="656" y="106" type="curve" smooth="yes"/>
      <point x="577" y="326" type="line"/>
      <point x="709" y="326" type="line"/>
      <point x="724" y="411" type="line"/>
      <point x="547" y="411" type="line"/>
      <point x="533" y="451" type="line"/>
      <point x="681" y="601" type="line" smooth="yes"/>
      <point x="710" y="631"/>
      <point x="729" y="637"/>
      <point x="761" y="637" type="curve" smooth="yes"/>
      <point x="780" y="637" type="line"/>
      <point x="794" y="710" type="line"/>
      <point x="534" y="710" type="line"/>
      <point x="520" y="637" type="line"/>
      <point x="531" y="637" type="line" smooth="yes"/>
      <point x="560" y="637"/>
      <point x="599" y="635"/>
      <point x="598" y="628" type="curve"/>
      <point x="383" y="411" type="line"/>
      <point x="323" y="411" type="line"/>
      <point x="361" y="627" type="line" smooth="yes"/>
      <point x="362" y="634"/>
      <point x="397" y="637"/>
      <point x="429" y="637" type="curve" smooth="yes"/>
      <point x="440" y="637" type="line"/>
      <point x="453" y="710" type="line"/>
      <point x="106" y="710" type="line"/>
      <point x="92" y="637" type="line"/>
      <point x="103" y="637" type="line" smooth="yes"/>
      <point x="134" y="637"/>
      <point x="155" y="630"/>
      <point x="150" y="601" type="curve" smooth="yes"/>
      <point x="116" y="411" type="line"/>
      <point x="51" y="411" type="line"/>
      <point x="36" y="326" type="line"/>
      <point x="101" y="326" type="line"/>
      <point x="63" y="109" type="line" smooth="yes"/>
      <point x="58" y="80"/>
      <point x="35" y="73"/>
      <point x="4" y="73" type="curve" smooth="yes"/>
      <point x="-7" y="73" type="line"/>
    </contour>
  </outline>
</glyph>
<glyph name="lira.altprop" format="1">
  <advance width="631"/>
  <outline>
    <contour>
      <point x="-8" y="0" type="line"/>
      <point x="550" y="0" type="line"/>
      <point x="590" y="227" type="line"/>
      <point x="506" y="227" type="line"/>
      <point x="489" y="174" type="line" smooth="yes"/>
      <point x="476" y="137"/>
      <point x="446" y="131"/>
      <point x="367" y="131" type="curve" smooth="yes"/>
      <point x="223" y="131" type="line"/>
      <point x="279" y="159"/>
      <point x="313" y="202"/>
      <point x="328" y="256" type="curve"/>
      <point x="468" y="256" type="line"/>
      <point x="482" y="331" type="line"/>
      <point x="338" y="331" type="line"/>
      <point x="338" y="335" type="line" smooth="yes"/>
      <point x="338" y="359"/>
      <point x="336" y="382"/>
      <point x="333" y="405" type="curve"/>
      <point x="495" y="405" type="line"/>
      <point x="508" y="480" type="line"/>
      <point x="326" y="480" type="line"/>
      <point x="325" y="486"/>
      <point x="325" y="493"/>
      <point x="325" y="499" type="curve" smooth="yes"/>
      <point x="325" y="575"/>
      <point x="349" y="633"/>
      <point x="421" y="633" type="curve" smooth="yes"/>
      <point x="449" y="633"/>
      <point x="470" y="625"/>
      <point x="485" y="612" type="curve"/>
      <point x="472" y="540" type="line"/>
      <point x="622" y="540" type="line"/>
      <point x="641" y="649" type="line"/>
      <point x="620" y="670"/>
      <point x="550" y="720"/>
      <point x="408" y="720" type="curve" smooth="yes"/>
      <point x="221" y="720"/>
      <point x="121" y="633"/>
      <point x="121" y="510" type="curve" smooth="yes"/>
      <point x="121" y="500"/>
      <point x="122" y="490"/>
      <point x="123" y="480" type="curve"/>
      <point x="72" y="480" type="line"/>
      <point x="58" y="405" type="line"/>
      <point x="142" y="405" type="line"/>
      <point x="149" y="381"/>
      <point x="158" y="356"/>
      <point x="163" y="331" type="curve"/>
      <point x="45" y="331" type="line"/>
      <point x="32" y="256" type="line"/>
      <point x="167" y="256" type="line"/>
      <point x="157" y="184"/>
      <point x="97" y="132"/>
      <point x="13" y="117" type="curve"/>
    </contour>
  </outline>
</glyph>
<glyph name="liraTurkish" format="1">
  <advance width="560"/>
  <outline>
    <contour>
      <point x="15" y="241" type="line"/>
      <point x="1" y="163" type="line"/>
      <point x="69" y="195" type="line"/>
      <point x="54" y="109" type="line" smooth="yes"/>
      <point x="49" y="80"/>
      <point x="26" y="73"/>
      <point x="-5" y="73" type="curve" smooth="yes"/>
      <point x="-15" y="73" type="line"/>
      <point x="-29" y="0" type="line"/>
      <point x="201" y="0" type="line" smooth="yes"/>
      <point x="420" y="0"/>
      <point x="507" y="88"/>
      <point x="544" y="268" type="curve"/>
      <point x="420" y="304" type="line"/>
      <point x="402" y="179"/>
      <point x="354" y="84"/>
      <point x="263" y="84" type="curve" smooth="yes"/>
      <point x="246" y="84" type="line"/>
      <point x="283" y="294" type="line"/>
      <point x="421" y="358" type="line"/>
      <point x="434" y="437" type="line"/>
      <point x="297" y="373" type="line"/>
      <point x="310" y="446" type="line"/>
      <point x="448" y="510" type="line"/>
      <point x="461" y="589" type="line"/>
      <point x="324" y="525" type="line"/>
      <point x="337" y="601" type="line" smooth="yes"/>
      <point x="342" y="630"/>
      <point x="366" y="637"/>
      <point x="399" y="637" type="curve" smooth="yes"/>
      <point x="413" y="637" type="line"/>
      <point x="427" y="710" type="line"/>
      <point x="98" y="710" type="line"/>
      <point x="84" y="637" type="line"/>
      <point x="94" y="637" type="line" smooth="yes"/>
      <point x="125" y="637"/>
      <point x="146" y="630"/>
      <point x="141" y="601" type="curve" smooth="yes"/>
      <point x="110" y="425" type="line"/>
      <point x="41" y="393" type="line"/>
      <point x="27" y="314" type="line"/>
      <point x="96" y="346" type="line"/>
      <point x="83" y="273" type="line"/>
    </contour>
  </outline>
</glyph>
<glyph name="liraTurkish.proportional" format="1">
  <advance width="679"/>
  <outline>
    <contour>
      <point x="40" y="246" type="line"/>
      <point x="26" y="162" type="line"/>
      <point x="95" y="190" type="line"/>
      <point x="81" y="109" type="line" smooth="yes"/>
      <point x="76" y="80"/>
      <point x="52" y="73"/>
      <point x="21" y="73" type="curve" smooth="yes"/>
      <point x="12" y="73" type="line"/>
      <point x="-2" y="0" type="line"/>
      <point x="278" y="0" type="line" smooth="yes"/>
      <point x="514" y="0"/>
      <point x="604" y="104"/>
      <point x="640" y="274" type="curve"/>
      <point x="514" y="308" type="line"/>
      <point x="494" y="197"/>
      <point x="445" y="84"/>
      <point x="315" y="84" type="curve" smooth="yes"/>
      <point x="272" y="84" type="line"/>
      <point x="306" y="275" type="line"/>
      <point x="468" y="341" type="line"/>
      <point x="482" y="425" type="line"/>
      <point x="321" y="360" type="line"/>
      <point x="333" y="429" type="line"/>
      <point x="495" y="494" type="line"/>
      <point x="510" y="578" type="line"/>
      <point x="348" y="512" type="line"/>
      <point x="364" y="601" type="line" smooth="yes"/>
      <point x="369" y="630"/>
      <point x="393" y="637"/>
      <point x="425" y="637" type="curve" smooth="yes"/>
      <point x="440" y="637" type="line"/>
      <point x="453" y="710" type="line"/>
      <point x="124" y="710" type="line"/>
      <point x="111" y="637" type="line"/>
      <point x="120" y="637" type="line" smooth="yes"/>
      <point x="151" y="637"/>
      <point x="173" y="630"/>
      <point x="168" y="601" type="curve" smooth="yes"/>
      <point x="137" y="427" type="line"/>
      <point x="68" y="399" type="line"/>
      <point x="53" y="315" type="line"/>
      <point x="122" y="343" type="line"/>
      <point x="110" y="274" type="line"/>
    </contour>
  </outline>
</glyph>
<glyph name="macron_acute" format="1">
  <advance width="541"/>
  <outline>
    <contour>
      <point x="272" y="874" type="curve" smooth="yes"/>
      <point x="227" y="770" type="line"/>
      <point x="224" y="741" type="line"/>
      <point x="281" y="741" type="line"/>
      <point x="363" y="791" type="line" smooth="yes"/>
      <point x="421" y="821"/>
      <point x="451" y="848"/>
      <point x="451" y="893" type="curve" smooth="yes"/>
      <point x="451" y="930"/>
      <point x="423" y="963"/>
      <point x="374" y="963" type="curve" smooth="yes"/>
      <point x="323" y="963"/>
      <point x="297" y="931"/>
    </contour>
    <contour>
      <point x="115" y="702" type="line"/>
      <point x="95" y="592" type="line"/>
      <point x="445" y="592" type="line"/>
      <point x="465" y="702" type="line"/>
    </contour>
    <contour>
      <point x="281" y="526" type="move" name="_top"/>
    </contour>
  </outline>
</glyph>
<glyph name="macron_acute.uc" format="1">
  <advance width="518"/>
  <outline>
    <contour>
      <point x="259" y="1022" type="curve" smooth="yes"/>
      <point x="206" y="942" type="line"/>
      <point x="203" y="914" type="line"/>
      <point x="260" y="914" type="line"/>
      <point x="335" y="940" type="line" smooth="yes"/>
      <point x="411" y="964"/>
      <point x="443" y="990"/>
      <point x="443" y="1037" type="curve" smooth="yes"/>
      <point x="443" y="1071"/>
      <point x="416" y="1099"/>
      <point x="370" y="1099" type="curve" smooth="yes"/>
      <point x="324" y="1099"/>
      <point x="292" y="1074"/>
    </contour>
    <contour>
      <point x="105" y="873" type="line"/>
      <point x="85" y="763" type="line"/>
      <point x="435" y="763" type="line"/>
      <point x="455" y="873" type="line"/>
    </contour>
    <contour>
      <point x="244" y="694" type="move" name="_top"/>
    </contour>
  </outline>
</glyph>
<glyph name="macron_dieresis.uc" format="1">
  <advance width="500"/>
  <outline>
    <contour>
      <point x="139" y="924" type="curve" smooth="yes"/>
      <point x="205" y="924"/>
      <point x="245" y="960"/>
      <point x="245" y="1016" type="curve" smooth="yes"/>
      <point x="245" y="1068"/>
      <point x="209" y="1100"/>
      <point x="148" y="1100" type="curve" smooth="yes"/>
      <point x="81" y="1100"/>
      <point x="42" y="1064"/>
      <point x="42" y="1007" type="curve" smooth="yes"/>
      <point x="42" y="956"/>
      <point x="78" y="924"/>
    </contour>
    <contour>
      <point x="385" y="924" type="curve" smooth="yes"/>
      <point x="452" y="924"/>
      <point x="491" y="960"/>
      <point x="491" y="1016" type="curve" smooth="yes"/>
      <point x="491" y="1068"/>
      <point x="456" y="1100"/>
      <point x="394" y="1100" type="curve" smooth="yes"/>
      <point x="328" y="1100"/>
      <point x="288" y="1064"/>
      <point x="288" y="1007" type="curve" smooth="yes"/>
      <point x="288" y="956"/>
      <point x="324" y="924"/>
    </contour>
    <contour>
      <point x="96" y="873" type="line"/>
      <point x="76" y="763" type="line"/>
      <point x="426" y="763" type="line"/>
      <point x="446" y="873" type="line"/>
    </contour>
    <contour>
      <point x="243" y="694" type="move" name="_top"/>
    </contour>
  </outline>
</glyph>
<glyph name="macron_grave" format="1">
  <advance width="656"/>
  <outline>
    <contour>
      <point x="397" y="867" type="line" smooth="yes"/>
      <point x="371" y="936"/>
      <point x="344" y="962"/>
      <point x="294" y="962" type="curve" smooth="yes"/>
      <point x="241" y="962"/>
      <point x="212" y="924"/>
      <point x="212" y="888" type="curve" smooth="yes"/>
      <point x="212" y="847"/>
      <point x="241" y="818"/>
      <point x="290" y="794" type="curve" smooth="yes"/>
      <point x="378" y="741" type="line"/>
      <point x="434" y="741" type="line"/>
      <point x="434" y="770" type="line"/>
    </contour>
    <contour>
      <point x="172" y="702" type="line"/>
      <point x="152" y="592" type="line"/>
      <point x="502" y="592" type="line"/>
      <point x="522" y="702" type="line"/>
    </contour>
    <contour>
      <point x="315" y="526" type="move" name="_top"/>
    </contour>
  </outline>
</glyph>
<glyph name="one.lin" format="1">
  <advance width="560"/>
  <outline>
    <contour>
      <point x="373" y="117" type="curve" smooth="yes"/>
      <point x="478" y="710" type="line"/>
      <point x="310" y="710" type="line"/>
      <point x="269" y="661"/>
      <point x="213" y="635"/>
      <point x="102" y="633" type="curve"/>
      <point x="82" y="522" type="line"/>
      <point x="158" y="520"/>
      <point x="216" y="537"/>
      <point x="255" y="585" type="curve"/>
      <point x="172" y="117" type="line" smooth="yes"/>
      <point x="166" y="80"/>
      <point x="118" y="73"/>
      <point x="58" y="73" type="curve" smooth="yes"/>
      <point x="23" y="73" type="line"/>
      <point x="9" y="0" type="line"/>
      <point x="484" y="0" type="line"/>
      <point x="497" y="73" type="line"/>
      <point x="475" y="73" type="line" smooth="yes"/>
      <point x="409" y="73"/>
      <point x="366" y="80"/>
    </contour>
  </outline>
</glyph>
<glyph name="one.num" format="1">
  <advance width="357"/>
  <outline>
    <contour>
      <point x="281" y="446" type="curve" smooth="yes"/>
      <point x="333" y="738" type="line"/>
      <point x="213" y="738" type="line"/>
      <point x="187" y="708"/>
      <point x="157" y="691"/>
      <point x="89" y="691" type="curve"/>
      <point x="75" y="614" type="line"/>
      <point x="121" y="614"/>
      <point x="153" y="623"/>
      <point x="178" y="655" type="curve"/>
      <point x="141" y="446" type="line" smooth="yes"/>
      <point x="137" y="421"/>
      <point x="104" y="418"/>
      <point x="71" y="418" type="curve" smooth="yes"/>
      <point x="55" y="418" type="line"/>
      <point x="46" y="369" type="line"/>
      <point x="340" y="369" type="line"/>
      <point x="349" y="418" type="line"/>
      <point x="339" y="418" type="line" smooth="yes"/>
      <point x="299" y="418"/>
      <point x="277" y="422"/>
    </contour>
  </outline>
</glyph>
<glyph name="one.sup" format="1">
  <advance width="359"/>
  <outline>
    <contour>
      <point x="286" y="446" type="curve" smooth="yes"/>
      <point x="338" y="738" type="line"/>
      <point x="218" y="738" type="line"/>
      <point x="192" y="708"/>
      <point x="162" y="691"/>
      <point x="94" y="691" type="curve"/>
      <point x="80" y="614" type="line"/>
      <point x="126" y="614"/>
      <point x="158" y="623"/>
      <point x="183" y="655" type="curve"/>
      <point x="146" y="446" type="line" smooth="yes"/>
      <point x="142" y="421"/>
      <point x="109" y="418"/>
      <point x="76" y="418" type="curve" smooth="yes"/>
      <point x="60" y="418" type="line"/>
      <point x="51" y="369" type="line"/>
      <point x="345" y="369" type="line"/>
      <point x="354" y="418" type="line"/>
      <point x="344" y="418" type="line" smooth="yes"/>
      <point x="304" y="418"/>
      <point x="282" y="422"/>
    </contour>
  </outline>
</glyph>
<glyph name="plus.sub" format="1">
  <advance width="418"/>
  <outline>
    <contour>
      <point x="162" y="219" type="line"/>
      <point x="145" y="119" type="line"/>
      <point x="37" y="119" type="line"/>
      <point x="25" y="41" type="line"/>
      <point x="132" y="41" type="line"/>
      <point x="113" y="-67" type="line"/>
      <point x="204" y="-67" type="line"/>
      <point x="223" y="41" type="line"/>
      <point x="331" y="41" type="line"/>
      <point x="343" y="119" type="line"/>
      <point x="237" y="119" type="line"/>
      <point x="254" y="219" type="line"/>
    </contour>
  </outline>
</glyph>
<glyph name="plus.sup" format="1">
  <advance width="418"/>
  <outline>
    <contour>
      <point x="396" y="593" type="line"/>
      <point x="289" y="593" type="line"/>
      <point x="306" y="693" type="line"/>
      <point x="214" y="693" type="line"/>
      <point x="197" y="593" type="line"/>
      <point x="90" y="593" type="line"/>
      <point x="77" y="515" type="line"/>
      <point x="184" y="515" type="line"/>
      <point x="165" y="407" type="line"/>
      <point x="256" y="407" type="line"/>
      <point x="275" y="515" type="line"/>
      <point x="383" y="515" type="line"/>
    </contour>
  </outline>
</glyph>
<glyph name="rupeeIndian" format="1">
  <advance width="560"/>
  <outline>
    <contour>
      <point x="75" y="519" type="line"/>
      <point x="59" y="432" type="line"/>
      <point x="269" y="432" type="line"/>
      <point x="251" y="367"/>
      <point x="199" y="330"/>
      <point x="89" y="330" type="curve" smooth="yes"/>
      <point x="42" y="330" type="line"/>
      <point x="28" y="257" type="line"/>
      <point x="217" y="0" type="line"/>
      <point x="450" y="0" type="line"/>
      <point x="464" y="72" type="line"/>
      <point x="452" y="72" type="line" smooth="yes"/>
      <point x="423" y="72"/>
      <point x="406" y="79"/>
      <point x="390" y="100" type="curve" smooth="yes"/>
      <point x="253" y="272" type="line"/>
      <point x="374" y="293"/>
      <point x="442" y="349"/>
      <point x="458" y="432" type="curve"/>
      <point x="543" y="432" type="line"/>
      <point x="559" y="519" type="line"/>
      <point x="456" y="519" type="line"/>
      <point x="443" y="568"/>
      <point x="406" y="604"/>
      <point x="336" y="625" type="curve"/>
      <point x="576" y="625" type="line"/>
      <point x="591" y="710" type="line"/>
      <point x="109" y="710" type="line"/>
      <point x="93" y="621" type="line"/>
      <point x="142" y="621" type="line" smooth="yes"/>
      <point x="233" y="621"/>
      <point x="270" y="581"/>
      <point x="276" y="519" type="curve"/>
    </contour>
  </outline>
</glyph>
<glyph name="rupeeIndian.proportional" format="1">
  <advance width="599"/>
  <outline>
    <contour>
      <point x="87" y="519" type="line"/>
      <point x="71" y="432" type="line"/>
      <point x="295" y="432" type="line"/>
      <point x="277" y="367"/>
      <point x="225" y="330"/>
      <point x="114" y="330" type="curve" smooth="yes"/>
      <point x="53" y="330" type="line"/>
      <point x="40" y="257" type="line"/>
      <point x="238" y="0" type="line"/>
      <point x="470" y="0" type="line"/>
      <point x="484" y="72" type="line"/>
      <point x="472" y="72" type="line" smooth="yes"/>
      <point x="443" y="72"/>
      <point x="427" y="79"/>
      <point x="410" y="100" type="curve" smooth="yes"/>
      <point x="267" y="270" type="line"/>
      <point x="396" y="289"/>
      <point x="468" y="346"/>
      <point x="484" y="432" type="curve"/>
      <point x="571" y="432" type="line"/>
      <point x="587" y="519" type="line"/>
      <point x="482" y="519" type="line"/>
      <point x="469" y="568"/>
      <point x="432" y="604"/>
      <point x="362" y="625" type="curve"/>
      <point x="603" y="625" type="line"/>
      <point x="619" y="710" type="line"/>
      <point x="121" y="710" type="line"/>
      <point x="105" y="621" type="line"/>
      <point x="167" y="621" type="line" smooth="yes"/>
      <point x="259" y="621"/>
      <point x="296" y="581"/>
      <point x="302" y="519" type="curve"/>
    </contour>
  </outline>
</glyph>
<glyph name="seven.sup" format="1">
  <advance width="364"/>
  <outline>
    <contour>
      <point x="203" y="642" type="curve" smooth="yes"/>
      <point x="321" y="642" type="line"/>
      <point x="247" y="587"/>
      <point x="139" y="489"/>
      <point x="119" y="369" type="curve"/>
      <point x="250" y="369" type="line"/>
      <point x="266" y="522"/>
      <point x="308" y="577"/>
      <point x="392" y="652" type="curve"/>
      <point x="407" y="738" type="line"/>
      <point x="111" y="738" type="line"/>
      <point x="83" y="572" type="line"/>
      <point x="131" y="572" type="line"/>
      <point x="144" y="616" type="line" smooth="yes"/>
      <point x="151" y="638"/>
      <point x="165" y="642"/>
    </contour>
  </outline>
</glyph>
<glyph name="six.lin" format="1">
  <advance width="560"/>
  <outline>
    <contour>
      <point x="265" y="-10" type="curve" smooth="yes"/>
      <point x="422" y="-10"/>
      <point x="535" y="101"/>
      <point x="535" y="269" type="curve" smooth="yes"/>
      <point x="535" y="392"/>
      <point x="464" y="453"/>
      <point x="370" y="453" type="curve" smooth="yes"/>
      <point x="321" y="453"/>
      <point x="278" y="434"/>
      <point x="246" y="407" type="curve"/>
      <point x="301" y="553"/>
      <point x="405" y="637"/>
      <point x="540" y="658" type="curve"/>
      <point x="543" y="740" type="line"/>
      <point x="224" y="710"/>
      <point x="15" y="489"/>
      <point x="15" y="249" type="curve" smooth="yes"/>
      <point x="15" y="74"/>
      <point x="116" y="-10"/>
    </contour>
    <contour>
      <point x="202" y="165" type="curve" smooth="yes"/>
      <point x="202" y="210"/>
      <point x="210" y="275"/>
      <point x="226" y="340" type="curve" smooth="yes"/>
      <point x="227" y="343" type="line"/>
      <point x="246" y="361"/>
      <point x="266" y="371"/>
      <point x="287" y="371" type="curve" smooth="yes"/>
      <point x="325" y="371"/>
      <point x="340" y="338"/>
      <point x="340" y="295" type="curve" smooth="yes"/>
      <point x="340" y="265"/>
      <point x="333" y="213"/>
      <point x="324" y="171" type="curve" smooth="yes"/>
      <point x="312" y="115"/>
      <point x="288" y="73"/>
      <point x="254" y="73" type="curve" smooth="yes"/>
      <point x="220" y="73"/>
      <point x="202" y="106"/>
    </contour>
  </outline>
</glyph>
<glyph name="three.lin" format="1">
  <advance width="560"/>
  <outline>
    <contour>
      <point x="318" y="720" type="curve" smooth="yes"/>
      <point x="224" y="720"/>
      <point x="154" y="690"/>
      <point x="110" y="663" type="curve"/>
      <point x="87" y="529" type="line"/>
      <point x="233" y="529" type="line"/>
      <point x="248" y="620" type="line"/>
      <point x="263" y="627"/>
      <point x="280" y="632"/>
      <point x="300" y="632" type="curve" smooth="yes"/>
      <point x="346" y="632"/>
      <point x="368" y="607"/>
      <point x="368" y="562" type="curve" smooth="yes"/>
      <point x="368" y="486"/>
      <point x="331" y="419"/>
      <point x="232" y="419" type="curve" smooth="yes"/>
      <point x="180" y="419" type="line"/>
      <point x="165" y="336" type="line"/>
      <point x="210" y="336" type="line" smooth="yes"/>
      <point x="302" y="336"/>
      <point x="333" y="294"/>
      <point x="333" y="235" type="curve" smooth="yes"/>
      <point x="333" y="165"/>
      <point x="303" y="80"/>
      <point x="222" y="80" type="curve" smooth="yes"/>
      <point x="143" y="80"/>
      <point x="107" y="143"/>
      <point x="87" y="213" type="curve"/>
      <point x="-2" y="168" type="line"/>
      <point x="22" y="65"/>
      <point x="104" y="-10"/>
      <point x="258" y="-10" type="curve" smooth="yes"/>
      <point x="415" y="-10"/>
      <point x="524" y="69"/>
      <point x="524" y="200" type="curve" smooth="yes"/>
      <point x="524" y="282"/>
      <point x="477" y="345"/>
      <point x="351" y="375" type="curve"/>
      <point x="478" y="392"/>
      <point x="551" y="456"/>
      <point x="551" y="556" type="curve" smooth="yes"/>
      <point x="551" y="656"/>
      <point x="464" y="720"/>
    </contour>
  </outline>
</glyph>
<glyph name="three.sup" format="1">
  <advance width="359"/>
  <outline>
    <contour>
      <point x="218" y="686" type="curve" smooth="yes"/>
      <point x="241" y="686"/>
      <point x="253" y="673"/>
      <point x="253" y="651" type="curve" smooth="yes"/>
      <point x="253" y="618"/>
      <point x="238" y="588"/>
      <point x="180" y="588" type="curve" smooth="yes"/>
      <point x="149" y="588" type="line"/>
      <point x="140" y="533" type="line"/>
      <point x="162" y="533" type="line" smooth="yes"/>
      <point x="208" y="533"/>
      <point x="227" y="516"/>
      <point x="227" y="483" type="curve" smooth="yes"/>
      <point x="227" y="444"/>
      <point x="210" y="421"/>
      <point x="174" y="421" type="curve" smooth="yes"/>
      <point x="125" y="421"/>
      <point x="103" y="462"/>
      <point x="95" y="499" type="curve"/>
      <point x="35" y="470" type="line"/>
      <point x="47" y="405"/>
      <point x="95" y="360"/>
      <point x="197" y="360" type="curve" smooth="yes"/>
      <point x="295" y="360"/>
      <point x="361" y="396"/>
      <point x="361" y="471" type="curve" smooth="yes"/>
      <point x="361" y="511"/>
      <point x="331" y="545"/>
      <point x="269" y="561" type="curve"/>
      <point x="337" y="570"/>
      <point x="378" y="599"/>
      <point x="378" y="652" type="curve" smooth="yes"/>
      <point x="378" y="711"/>
      <point x="326" y="743"/>
      <point x="233" y="743" type="curve" smooth="yes"/>
      <point x="164" y="743"/>
      <point x="122" y="721"/>
      <point x="97" y="700" type="curve"/>
      <point x="87" y="637" type="line"/>
      <point x="185" y="637" type="line"/>
      <point x="191" y="679" type="line"/>
      <point x="199" y="683"/>
      <point x="208" y="686"/>
    </contour>
  </outline>
</glyph>
<glyph name="tilde_macron" format="1">
  <advance width="525"/>
  <outline>
    <contour>
      <point x="122" y="904" type="line"/>
      <point x="102" y="794" type="line"/>
      <point x="452" y="794" type="line"/>
      <point x="472" y="904" type="line"/>
    </contour>
    <contour>
      <point x="150" y="559" type="line"/>
      <point x="162" y="599"/>
      <point x="174" y="617"/>
      <point x="197" y="617" type="curve" smooth="yes"/>
      <point x="233" y="617"/>
      <point x="254" y="560"/>
      <point x="328" y="560" type="curve" smooth="yes"/>
      <point x="390" y="560"/>
      <point x="437" y="607"/>
      <point x="466" y="709" type="curve"/>
      <point x="389" y="744" type="line"/>
      <point x="375" y="705"/>
      <point x="363" y="685"/>
      <point x="340" y="685" type="curve" smooth="yes"/>
      <point x="298" y="685"/>
      <point x="280" y="740"/>
      <point x="208" y="740" type="curve" smooth="yes"/>
      <point x="138" y="740"/>
      <point x="99" y="696"/>
      <point x="72" y="592" type="curve"/>
    </contour>
    <contour>
      <point x="261" y="535" type="move" name="_top"/>
    </contour>
  </outline>
</glyph>
<glyph name="two.lin" format="1">
  <advance width="560"/>
  <outline>
    <contour>
      <point x="-25" y="0" type="line"/>
      <point x="475" y="0" type="line"/>
      <point x="516" y="237" type="line"/>
      <point x="432" y="237" type="line"/>
      <point x="412" y="181" type="line" smooth="yes"/>
      <point x="399" y="145"/>
      <point x="371" y="138"/>
      <point x="293" y="138" type="curve" smooth="yes"/>
      <point x="141" y="138" type="line"/>
      <point x="373" y="256"/>
      <point x="547" y="382"/>
      <point x="547" y="536" type="curve" smooth="yes"/>
      <point x="547" y="650"/>
      <point x="464" y="720"/>
      <point x="308" y="720" type="curve" smooth="yes"/>
      <point x="200" y="720"/>
      <point x="124" y="682"/>
      <point x="82" y="655" type="curve"/>
      <point x="58" y="514" type="line"/>
      <point x="209" y="514" type="line"/>
      <point x="226" y="619" type="line"/>
      <point x="242" y="627"/>
      <point x="260" y="632"/>
      <point x="281" y="632" type="curve" smooth="yes"/>
      <point x="328" y="632"/>
      <point x="352" y="607"/>
      <point x="352" y="553" type="curve" smooth="yes"/>
      <point x="352" y="392"/>
      <point x="213" y="278"/>
      <point x="1" y="152" type="curve"/>
    </contour>
  </outline>
</glyph>
<glyph name="two.num" format="1">
  <advance width="357"/>
  <outline>
    <contour>
      <point x="25" y="369" type="line"/>
      <point x="338" y="369" type="line"/>
      <point x="363" y="516" type="line"/>
      <point x="308" y="516" type="line"/>
      <point x="298" y="488" type="line" smooth="yes"/>
      <point x="290" y="466"/>
      <point x="274" y="465"/>
      <point x="228" y="465" type="curve" smooth="yes"/>
      <point x="130" y="465" type="line"/>
      <point x="269" y="512"/>
      <point x="369" y="548"/>
      <point x="369" y="642" type="curve" smooth="yes"/>
      <point x="369" y="709"/>
      <point x="314" y="743"/>
      <point x="221" y="743" type="curve" smooth="yes"/>
      <point x="162" y="743"/>
      <point x="111" y="721"/>
      <point x="83" y="703" type="curve"/>
      <point x="69" y="617" type="line"/>
      <point x="171" y="617" type="line"/>
      <point x="182" y="682" type="line"/>
      <point x="189" y="684"/>
      <point x="196" y="686"/>
      <point x="203" y="686" type="curve" smooth="yes"/>
      <point x="224" y="686"/>
      <point x="233" y="673"/>
      <point x="233" y="649" type="curve" smooth="yes"/>
      <point x="233" y="581"/>
      <point x="186" y="538"/>
      <point x="43" y="472" type="curve"/>
    </contour>
  </outline>
</glyph>
<glyph name="two.old" format="1">
  <advance width="560"/>
  <outline>
    <contour>
      <point x="-16" y="0" type="line"/>
      <point x="484" y="0" type="line"/>
      <point x="522" y="216" type="line"/>
      <point x="438" y="216" type="line"/>
      <point x="424" y="176" type="line" smooth="yes"/>
      <point x="410" y="141"/>
      <point x="383" y="135"/>
      <point x="306" y="135" type="curve" smooth="yes"/>
      <point x="153" y="135" type="line"/>
      <point x="358" y="201"/>
      <point x="529" y="271"/>
      <point x="529" y="402" type="curve" smooth="yes"/>
      <point x="529" y="504"/>
      <point x="451" y="558"/>
      <point x="297" y="558" type="curve" smooth="yes"/>
      <point x="189" y="558"/>
      <point x="112" y="520"/>
      <point x="69" y="490" type="curve"/>
      <point x="46" y="357" type="line"/>
      <point x="197" y="357" type="line"/>
      <point x="213" y="456" type="line"/>
      <point x="228" y="466"/>
      <point x="247" y="472"/>
      <point x="270" y="472" type="curve" smooth="yes"/>
      <point x="315" y="472"/>
      <point x="334" y="451"/>
      <point x="334" y="413" type="curve" smooth="yes"/>
      <point x="334" y="300"/>
      <point x="211" y="240"/>
      <point x="11" y="157" type="curve"/>
    </contour>
  </outline>
</glyph>
<glyph name="uni20B4.proportional" format="1">
  <advance width="648"/>
  <outline>
    <contour>
      <point x="65" y="470" type="line"/>
      <point x="52" y="396" type="line"/>
      <point x="617" y="396" type="line"/>
      <point x="630" y="470" type="line"/>
      <point x="568" y="470" type="line"/>
      <point x="596" y="498"/>
      <point x="610" y="535"/>
      <point x="610" y="576" type="curve" smooth="yes"/>
      <point x="610" y="665"/>
      <point x="537" y="720"/>
      <point x="380" y="720" type="curve" smooth="yes"/>
      <point x="265" y="720"/>
      <point x="187" y="675"/>
      <point x="159" y="655" type="curve"/>
      <point x="139" y="541" type="line"/>
      <point x="266" y="541" type="line"/>
      <point x="278" y="609" type="line"/>
      <point x="298" y="623"/>
      <point x="324" y="630"/>
      <point x="353" y="630" type="curve" smooth="yes"/>
      <point x="410" y="630"/>
      <point x="437" y="604"/>
      <point x="437" y="566" type="curve" smooth="yes"/>
      <point x="437" y="530"/>
      <point x="408" y="494"/>
      <point x="360" y="470" type="curve"/>
    </contour>
    <contour>
      <point x="308" y="-10" type="curve" smooth="yes"/>
      <point x="414" y="-10"/>
      <point x="490" y="22"/>
      <point x="534" y="48" type="curve"/>
      <point x="557" y="196" type="line"/>
      <point x="423" y="196" type="line"/>
      <point x="405" y="99" type="line"/>
      <point x="383" y="87"/>
      <point x="357" y="80"/>
      <point x="325" y="80" type="curve" smooth="yes"/>
      <point x="263" y="80"/>
      <point x="228" y="107"/>
      <point x="228" y="161" type="curve" smooth="yes"/>
      <point x="228" y="196"/>
      <point x="246" y="233"/>
      <point x="287" y="257" type="curve"/>
      <point x="593" y="257" type="line"/>
      <point x="606" y="331" type="line"/>
      <point x="41" y="331" type="line"/>
      <point x="28" y="257" type="line"/>
      <point x="89" y="257" type="line"/>
      <point x="66" y="233"/>
      <point x="52" y="200"/>
      <point x="52" y="160" type="curve" smooth="yes"/>
      <point x="52" y="40"/>
      <point x="155" y="-10"/>
    </contour>
  </outline>
</glyph>
<glyph name="zero.slash" format="1">
  <advance width="560"/>
  <outline>
    <contour>
      <point x="249" y="-11" type="curve" smooth="yes"/>
      <point x="456" y="-11"/>
      <point x="545" y="192"/>
      <point x="545" y="355" type="curve" smooth="yes"/>
      <point x="545" y="511"/>
      <point x="459" y="619"/>
      <point x="314" y="619" type="curve" smooth="yes"/>
      <point x="105" y="619"/>
      <point x="15" y="417"/>
      <point x="15" y="253" type="curve" smooth="yes"/>
      <point x="15" y="97"/>
      <point x="101" y="-11"/>
    </contour>
    <contour>
      <point x="214" y="303" type="curve"/>
      <point x="242" y="470"/>
      <point x="268" y="533"/>
      <point x="318" y="533" type="curve"/>
      <point x="353" y="533"/>
      <point x="367" y="507"/>
      <point x="367" y="458" type="curve" smooth="yes"/>
      <point x="367" y="445"/>
      <point x="366" y="431"/>
      <point x="364" y="415" type="curve"/>
      <point x="212" y="295" type="line"/>
      <point x="214" y="303"/>
      <point x="214" y="303"/>
    </contour>
    <contour>
      <point x="242" y="75" type="curve"/>
      <point x="207" y="75"/>
      <point x="193" y="101"/>
      <point x="193" y="150" type="curve" smooth="yes"/>
      <point x="193" y="162"/>
      <point x="194" y="176"/>
      <point x="196" y="192" type="curve"/>
      <point x="348" y="313" type="line"/>
      <point x="347" y="305" type="line" smooth="yes"/>
      <point x="318" y="138"/>
      <point x="293" y="75"/>
    </contour>
  </outline>
</glyph>
<glyph name="zero.sub" format="1">
  <advance width="364"/>
  <outline>
    <contour>
      <point x="-4" y="54" type="curve" smooth="yes"/>
      <point x="-4" y="-36"/>
      <point x="46" y="-107"/>
      <point x="148" y="-107" type="curve" smooth="yes"/>
      <point x="285" y="-107"/>
      <point x="337" y="22"/>
      <point x="337" y="114" type="curve" smooth="yes"/>
      <point x="337" y="204"/>
      <point x="287" y="275"/>
      <point x="188" y="275" type="curve"/>
      <point x="48" y="275"/>
      <point x="-4" y="146"/>
    </contour>
    <contour>
      <point x="139" y="100" type="curve" smooth="yes"/>
      <point x="158" y="194"/>
      <point x="170" y="218"/>
      <point x="191" y="218" type="curve"/>
      <point x="207" y="218"/>
      <point x="212" y="205"/>
      <point x="212" y="187" type="curve" smooth="yes"/>
      <point x="212" y="172"/>
      <point x="208" y="132"/>
      <point x="194" y="67" type="curve" smooth="yes"/>
      <point x="175" y="-26"/>
      <point x="163" y="-50"/>
      <point x="142" y="-50" type="curve"/>
      <point x="126" y="-50"/>
      <point x="121" y="-38"/>
      <point x="121" y="-20" type="curve" smooth="yes"/>
      <point x="121" y="-4"/>
      <point x="125" y="35"/>
    </contour>
  </outline>
</glyph>
<glyph name="zero.sup" format="1">
  <advance width="364"/>
  <outline>
    <contour>
      <point x="51" y="523" type="curve" smooth="yes"/>
      <point x="51" y="433"/>
      <point x="101" y="362"/>
      <point x="203" y="362" type="curve" smooth="yes"/>
      <point x="340" y="362"/>
      <point x="392" y="491"/>
      <point x="392" y="583" type="curve" smooth="yes"/>
      <point x="392" y="673"/>
      <point x="342" y="744"/>
      <point x="243" y="744" type="curve"/>
      <point x="103" y="744"/>
      <point x="51" y="615"/>
    </contour>
    <contour>
      <point x="194" y="569" type="curve" smooth="yes"/>
      <point x="213" y="663"/>
      <point x="225" y="687"/>
      <point x="246" y="687" type="curve"/>
      <point x="262" y="687"/>
      <point x="267" y="674"/>
      <point x="267" y="656" type="curve" smooth="yes"/>
      <point x="267" y="641"/>
      <point x="263" y="601"/>
      <point x="249" y="536" type="curve" smooth="yes"/>
      <point x="230" y="443"/>
      <point x="218" y="419"/>
      <point x="197" y="419" type="curve"/>
      <point x="181" y="419"/>
      <point x="176" y="431"/>
      <point x="176" y="449" type="curve" smooth="yes"/>
      <point x="176" y="465"/>
      <point x="180" y="504"/>
    </contour>
  </outline>
</glyph>
